<svg width="641" height="331" viewBox="0 0 641 331" fill="none" xmlns="http://www.w3.org/2000/svg">
    <rect width="641" height="331" fill="white"/>
    <rect y="32" width="615" height="299" fill="#370025"/>
    <circle cx="18" cy="16" r="14" fill="#D1001E"/>
    <circle cx="85" cy="16" r="14" fill="#FF6820"/>
    <circle cx="52" cy="16" r="14" fill="#0FFF0D"/>
    <rect x="11" y="303" width="388" height="17" fill="#67FF44"/>
    <rect x="11" y="219" width="365" height="17" fill="#00696A"/>
    <rect x="11" y="247" width="471" height="17" fill="#00A0B8"/>
    <rect x="11" y="275" width="265" height="17" fill="#0009C4"/>
    <path d="M19.177 84.63C17.3763 84.482 15.9087 84.2107 14.774 83.816C13.664 83.3967 12.8377 83.0513 12.295 82.78L13.886 78.525C14.7493 78.9443 15.773 79.3267 16.957 79.672C18.1657 80.0173 19.436 80.19 20.768 80.19C22.2727 80.19 23.2963 79.9927 23.839 79.598C24.4063 79.1787 24.69 78.599 24.69 77.859C24.69 77.3903 24.579 76.9957 24.357 76.675C24.135 76.3297 23.8143 76.0213 23.395 75.75C22.9757 75.4787 22.4453 75.2197 21.804 74.973C21.1627 74.7017 20.4227 74.418 19.584 74.122C18.77 73.826 17.9683 73.5053 17.179 73.16C16.4143 72.79 15.7113 72.346 15.07 71.828C14.4533 71.31 13.9477 70.681 13.553 69.941C13.183 69.1763 12.998 68.2637 12.998 67.203C12.998 66.389 13.109 65.612 13.331 64.872C13.5777 64.1073 13.9477 63.4167 14.441 62.8C14.9343 62.1833 15.5757 61.6653 16.365 61.246C17.1543 60.802 18.0917 60.4813 19.177 60.284V56.288H23.839V60.136C25.1217 60.2593 26.2193 60.4443 27.132 60.691C28.0693 60.9377 28.8093 61.1843 29.352 61.431L28.205 65.871C27.391 65.5257 26.4413 65.2297 25.356 64.983C24.2953 64.7363 23.173 64.613 21.989 64.613C20.805 64.613 19.954 64.8103 19.436 65.205C18.918 65.5997 18.659 66.1177 18.659 66.759C18.659 67.1537 18.733 67.499 18.881 67.795C19.0537 68.0663 19.3127 68.313 19.658 68.535C20.0033 68.757 20.4227 68.979 20.916 69.201C21.434 69.3983 22.0507 69.6203 22.766 69.867C23.8513 70.2617 24.8503 70.6933 25.763 71.162C26.7003 71.6307 27.502 72.1733 28.168 72.79C28.8587 73.382 29.389 74.085 29.759 74.899C30.1537 75.713 30.351 76.6627 30.351 77.748C30.351 78.488 30.24 79.228 30.018 79.968C29.796 80.6833 29.426 81.3493 28.908 81.966C28.39 82.5827 27.7117 83.113 26.873 83.557C26.059 84.001 25.0477 84.3217 23.839 84.519V89.033H19.177V84.63ZM43.508 66.204C44.4453 65.9327 45.654 65.686 47.134 65.464C48.614 65.2173 50.168 65.094 51.796 65.094C53.4486 65.094 54.8176 65.316 55.903 65.76C57.013 66.1793 57.8886 66.7837 58.53 67.573C59.1713 68.3623 59.6276 69.2997 59.899 70.385C60.1703 71.4703 60.306 72.679 60.306 74.011V85H54.793V74.677C54.793 72.901 54.5586 71.643 54.09 70.903C53.6213 70.163 52.7456 69.793 51.463 69.793C51.0683 69.793 50.649 69.8177 50.205 69.867C49.761 69.8917 49.3663 69.9287 49.021 69.978V85H43.508V66.204ZM77.7651 75.417C77.7651 73.715 77.3827 72.3583 76.6181 71.347C75.8534 70.311 74.7187 69.793 73.2141 69.793C72.7207 69.793 72.2644 69.8177 71.8451 69.867C71.4257 69.8917 71.0804 69.9287 70.8091 69.978V79.931C71.1544 80.153 71.5984 80.338 72.1411 80.486C72.7084 80.634 73.2757 80.708 73.8431 80.708C76.4577 80.708 77.7651 78.9443 77.7651 75.417ZM83.3891 75.269C83.3891 76.7737 83.2041 78.1427 82.8341 79.376C82.4641 80.6093 81.9214 81.67 81.2061 82.558C80.4907 83.446 79.6027 84.1367 78.5421 84.63C77.4814 85.1233 76.2604 85.37 74.8791 85.37C74.1144 85.37 73.3991 85.296 72.7331 85.148C72.0671 85 71.4257 84.7903 70.8091 84.519V91.845H65.2961V66.204C65.7894 66.056 66.3567 65.9203 66.9981 65.797C67.6394 65.649 68.3054 65.5257 68.9961 65.427C69.7114 65.3283 70.4267 65.2543 71.1421 65.205C71.8821 65.131 72.5851 65.094 73.2511 65.094C74.8544 65.094 76.2851 65.3407 77.5431 65.834C78.8011 66.3027 79.8617 66.981 80.7251 67.869C81.5884 68.7323 82.2421 69.793 82.6861 71.051C83.1547 72.309 83.3891 73.715 83.3891 75.269ZM98.3191 74.677C98.3191 72.901 98.0848 71.643 97.6161 70.903C97.1721 70.163 96.3951 69.793 95.2851 69.793C94.9398 69.793 94.5821 69.8177 94.2121 69.867C93.8421 69.8917 93.4845 69.9287 93.1391 69.978V85H87.6261V66.204C88.0948 66.0807 88.6375 65.9573 89.2541 65.834C89.8955 65.686 90.5615 65.5627 91.2521 65.464C91.9675 65.3407 92.6951 65.2543 93.4351 65.205C94.1751 65.131 94.9028 65.094 95.6181 65.094C97.0241 65.094 98.1588 65.279 99.0221 65.649C99.9101 65.9943 100.638 66.4137 101.205 66.907C101.994 66.3397 102.895 65.8957 103.906 65.575C104.942 65.2543 105.892 65.094 106.755 65.094C108.309 65.094 109.579 65.316 110.566 65.76C111.577 66.1793 112.379 66.7837 112.971 67.573C113.563 68.3623 113.97 69.2997 114.192 70.385C114.414 71.4703 114.525 72.679 114.525 74.011V85H109.012V74.677C109.012 72.901 108.778 71.643 108.309 70.903C107.865 70.163 107.088 69.793 105.978 69.793C105.682 69.793 105.263 69.867 104.72 70.015C104.202 70.163 103.77 70.348 103.425 70.57C103.598 71.1373 103.709 71.7417 103.758 72.383C103.807 72.9997 103.832 73.6657 103.832 74.381V85H98.3191V74.677ZM133.933 85H128.42V65.538H133.933V85ZM134.451 59.914C134.451 60.9253 134.118 61.727 133.452 62.319C132.811 62.8863 132.046 63.17 131.158 63.17C130.27 63.17 129.493 62.8863 128.827 62.319C128.186 61.727 127.865 60.9253 127.865 59.914C127.865 58.9027 128.186 58.1133 128.827 57.546C129.493 56.954 130.27 56.658 131.158 56.658C132.046 56.658 132.811 56.954 133.452 57.546C134.118 58.1133 134.451 58.9027 134.451 59.914ZM139.115 66.204C140.053 65.9327 141.261 65.686 142.741 65.464C144.221 65.2173 145.775 65.094 147.403 65.094C149.056 65.094 150.425 65.316 151.51 65.76C152.62 66.1793 153.496 66.7837 154.137 67.573C154.779 68.3623 155.235 69.2997 155.506 70.385C155.778 71.4703 155.913 72.679 155.913 74.011V85H150.4V74.677C150.4 72.901 150.166 71.643 149.697 70.903C149.229 70.163 148.353 69.793 147.07 69.793C146.676 69.793 146.256 69.8177 145.812 69.867C145.368 69.8917 144.974 69.9287 144.628 69.978V85H139.115V66.204ZM166.49 81.041C167.502 81.041 168.217 80.9423 168.636 80.745C169.056 80.5477 169.265 80.1653 169.265 79.598C169.265 79.154 168.994 78.7717 168.451 78.451C167.909 78.1057 167.082 77.7233 165.972 77.304C165.109 76.9833 164.32 76.6503 163.604 76.305C162.914 75.9597 162.322 75.5527 161.828 75.084C161.335 74.5907 160.953 74.011 160.681 73.345C160.41 72.679 160.274 71.8773 160.274 70.94C160.274 69.1147 160.953 67.6717 162.309 66.611C163.666 65.5503 165.528 65.02 167.896 65.02C169.08 65.02 170.215 65.131 171.3 65.353C172.386 65.5503 173.249 65.7723 173.89 66.019L172.928 70.311C172.287 70.089 171.584 69.8917 170.819 69.719C170.079 69.5463 169.241 69.46 168.303 69.46C166.577 69.46 165.713 69.941 165.713 70.903C165.713 71.125 165.75 71.3223 165.824 71.495C165.898 71.6677 166.046 71.8403 166.268 72.013C166.49 72.161 166.786 72.3337 167.156 72.531C167.551 72.7037 168.044 72.901 168.636 73.123C169.845 73.567 170.844 74.011 171.633 74.455C172.423 74.8743 173.039 75.343 173.483 75.861C173.952 76.3543 174.273 76.9093 174.445 77.526C174.643 78.1427 174.741 78.858 174.741 79.672C174.741 81.596 174.014 83.0513 172.558 84.038C171.128 85.0247 169.093 85.518 166.453 85.518C164.727 85.518 163.284 85.37 162.124 85.074C160.99 84.778 160.2 84.5313 159.756 84.334L160.681 79.857C161.619 80.227 162.581 80.523 163.567 80.745C164.554 80.9423 165.528 81.041 166.49 81.041ZM178.676 60.691L184.189 59.803V65.538H190.812V70.126H184.189V76.971C184.189 78.1303 184.387 79.0553 184.781 79.746C185.201 80.4367 186.027 80.782 187.26 80.782C187.852 80.782 188.457 80.7327 189.073 80.634C189.715 80.5107 190.294 80.3503 190.812 80.153L191.589 84.445C190.923 84.7163 190.183 84.9507 189.369 85.148C188.555 85.3453 187.556 85.444 186.372 85.444C184.868 85.444 183.622 85.2467 182.635 84.852C181.649 84.4327 180.859 83.8653 180.267 83.15C179.675 82.41 179.256 81.522 179.009 80.486C178.787 79.45 178.676 78.303 178.676 77.045V60.691ZM202.016 81.152C202.559 81.152 203.077 81.1397 203.57 81.115C204.064 81.0903 204.458 81.0533 204.754 81.004V76.823C204.532 76.7737 204.199 76.7243 203.755 76.675C203.311 76.6257 202.904 76.601 202.534 76.601C202.016 76.601 201.523 76.638 201.054 76.712C200.61 76.7613 200.216 76.8723 199.87 77.045C199.525 77.2177 199.254 77.452 199.056 77.748C198.859 78.044 198.76 78.414 198.76 78.858C198.76 79.7213 199.044 80.3257 199.611 80.671C200.203 80.9917 201.005 81.152 202.016 81.152ZM201.572 65.02C203.2 65.02 204.557 65.205 205.642 65.575C206.728 65.945 207.591 66.4753 208.232 67.166C208.898 67.8567 209.367 68.6953 209.638 69.682C209.91 70.6687 210.045 71.7663 210.045 72.975V84.445C209.256 84.6177 208.158 84.815 206.752 85.037C205.346 85.2837 203.644 85.407 201.646 85.407C200.388 85.407 199.241 85.296 198.205 85.074C197.194 84.852 196.318 84.4943 195.578 84.001C194.838 83.483 194.271 82.817 193.876 82.003C193.482 81.189 193.284 80.19 193.284 79.006C193.284 77.8713 193.506 76.9093 193.95 76.12C194.419 75.3307 195.036 74.7017 195.8 74.233C196.565 73.7643 197.441 73.4313 198.427 73.234C199.414 73.012 200.438 72.901 201.498 72.901C202.214 72.901 202.843 72.938 203.385 73.012C203.953 73.0613 204.409 73.1353 204.754 73.234V72.716C204.754 71.7787 204.471 71.0263 203.903 70.459C203.336 69.8917 202.349 69.608 200.943 69.608C200.006 69.608 199.081 69.682 198.168 69.83C197.256 69.9533 196.466 70.1383 195.8 70.385L195.097 65.945C195.418 65.8463 195.813 65.7477 196.281 65.649C196.775 65.5257 197.305 65.427 197.872 65.353C198.44 65.2543 199.032 65.1803 199.648 65.131C200.29 65.057 200.931 65.02 201.572 65.02ZM222.8 85.37C221.197 85.3453 219.89 85.1727 218.878 84.852C217.892 84.5313 217.102 84.0873 216.51 83.52C215.943 82.928 215.548 82.225 215.326 81.411C215.129 80.5723 215.03 79.635 215.03 78.599V57.176L220.543 56.288V77.489C220.543 77.9823 220.58 78.4263 220.654 78.821C220.728 79.2157 220.864 79.5487 221.061 79.82C221.283 80.0913 221.592 80.3133 221.986 80.486C222.381 80.6587 222.911 80.7697 223.577 80.819L222.8 85.37ZM234.507 85.37C232.904 85.3453 231.597 85.1727 230.585 84.852C229.599 84.5313 228.809 84.0873 228.217 83.52C227.65 82.928 227.255 82.225 227.033 81.411C226.836 80.5723 226.737 79.635 226.737 78.599V57.176L232.25 56.288V77.489C232.25 77.9823 232.287 78.4263 232.361 78.821C232.435 79.2157 232.571 79.5487 232.768 79.82C232.99 80.0913 233.299 80.3133 233.693 80.486C234.088 80.6587 234.618 80.7697 235.284 80.819L234.507 85.37ZM252.92 81.041C253.931 81.041 254.647 80.9423 255.066 80.745C255.485 80.5477 255.695 80.1653 255.695 79.598C255.695 79.154 255.424 78.7717 254.881 78.451C254.338 78.1057 253.512 77.7233 252.402 77.304C251.539 76.9833 250.749 76.6503 250.034 76.305C249.343 75.9597 248.751 75.5527 248.258 75.084C247.765 74.5907 247.382 74.011 247.111 73.345C246.84 72.679 246.704 71.8773 246.704 70.94C246.704 69.1147 247.382 67.6717 248.739 66.611C250.096 65.5503 251.958 65.02 254.326 65.02C255.51 65.02 256.645 65.131 257.73 65.353C258.815 65.5503 259.679 65.7723 260.32 66.019L259.358 70.311C258.717 70.089 258.014 69.8917 257.249 69.719C256.509 69.5463 255.67 69.46 254.733 69.46C253.006 69.46 252.143 69.941 252.143 70.903C252.143 71.125 252.18 71.3223 252.254 71.495C252.328 71.6677 252.476 71.8403 252.698 72.013C252.92 72.161 253.216 72.3337 253.586 72.531C253.981 72.7037 254.474 72.901 255.066 73.123C256.275 73.567 257.274 74.011 258.063 74.455C258.852 74.8743 259.469 75.343 259.913 75.861C260.382 76.3543 260.702 76.9093 260.875 77.526C261.072 78.1427 261.171 78.858 261.171 79.672C261.171 81.596 260.443 83.0513 258.988 84.038C257.557 85.0247 255.522 85.518 252.883 85.518C251.156 85.518 249.713 85.37 248.554 85.074C247.419 84.778 246.63 84.5313 246.186 84.334L247.111 79.857C248.048 80.227 249.01 80.523 249.997 80.745C250.984 80.9423 251.958 81.041 252.92 81.041ZM265.106 60.691L270.619 59.803V65.538H277.242V70.126H270.619V76.971C270.619 78.1303 270.817 79.0553 271.211 79.746C271.631 80.4367 272.457 80.782 273.69 80.782C274.282 80.782 274.887 80.7327 275.503 80.634C276.145 80.5107 276.724 80.3503 277.242 80.153L278.019 84.445C277.353 84.7163 276.613 84.9507 275.799 85.148C274.985 85.3453 273.986 85.444 272.802 85.444C271.298 85.444 270.052 85.2467 269.065 84.852C268.079 84.4327 267.289 83.8653 266.697 83.15C266.105 82.41 265.686 81.522 265.439 80.486C265.217 79.45 265.106 78.303 265.106 77.045V60.691ZM299.213 75.232C299.213 76.7613 298.991 78.1673 298.547 79.45C298.103 80.708 297.462 81.7933 296.623 82.706C295.784 83.594 294.773 84.2847 293.589 84.778C292.43 85.2713 291.122 85.518 289.667 85.518C288.236 85.518 286.929 85.2713 285.745 84.778C284.586 84.2847 283.587 83.594 282.748 82.706C281.909 81.7933 281.256 80.708 280.787 79.45C280.318 78.1673 280.084 76.7613 280.084 75.232C280.084 73.7027 280.318 72.309 280.787 71.051C281.28 69.793 281.946 68.72 282.785 67.832C283.648 66.944 284.66 66.2533 285.819 65.76C287.003 65.2667 288.286 65.02 289.667 65.02C291.073 65.02 292.356 65.2667 293.515 65.76C294.699 66.2533 295.71 66.944 296.549 67.832C297.388 68.72 298.041 69.793 298.51 71.051C298.979 72.309 299.213 73.7027 299.213 75.232ZM293.589 75.232C293.589 73.53 293.244 72.198 292.553 71.236C291.887 70.2493 290.925 69.756 289.667 69.756C288.409 69.756 287.435 70.2493 286.744 71.236C286.053 72.198 285.708 73.53 285.708 75.232C285.708 76.934 286.053 78.2907 286.744 79.302C287.435 80.2887 288.409 80.782 289.667 80.782C290.925 80.782 291.887 80.2887 292.553 79.302C293.244 78.2907 293.589 76.934 293.589 75.232ZM315.213 70.422C314.719 70.2987 314.14 70.1753 313.474 70.052C312.808 69.904 312.092 69.83 311.328 69.83C310.982 69.83 310.563 69.867 310.07 69.941C309.601 69.9903 309.243 70.052 308.997 70.126V85H303.484V66.574C304.47 66.2287 305.63 65.908 306.962 65.612C308.318 65.2913 309.823 65.131 311.476 65.131C311.772 65.131 312.129 65.1557 312.549 65.205C312.968 65.2297 313.387 65.279 313.807 65.353C314.226 65.4023 314.645 65.4763 315.065 65.575C315.484 65.649 315.842 65.7477 316.138 65.871L315.213 70.422ZM326.169 81.152C326.711 81.152 327.229 81.1397 327.723 81.115C328.216 81.0903 328.611 81.0533 328.907 81.004V76.823C328.685 76.7737 328.352 76.7243 327.908 76.675C327.464 76.6257 327.057 76.601 326.687 76.601C326.169 76.601 325.675 76.638 325.207 76.712C324.763 76.7613 324.368 76.8723 324.023 77.045C323.677 77.2177 323.406 77.452 323.209 77.748C323.011 78.044 322.913 78.414 322.913 78.858C322.913 79.7213 323.196 80.3257 323.764 80.671C324.356 80.9917 325.157 81.152 326.169 81.152ZM325.725 65.02C327.353 65.02 328.709 65.205 329.795 65.575C330.88 65.945 331.743 66.4753 332.385 67.166C333.051 67.8567 333.519 68.6953 333.791 69.682C334.062 70.6687 334.198 71.7663 334.198 72.975V84.445C333.408 84.6177 332.311 84.815 330.905 85.037C329.499 85.2837 327.797 85.407 325.799 85.407C324.541 85.407 323.394 85.296 322.358 85.074C321.346 84.852 320.471 84.4943 319.731 84.001C318.991 83.483 318.423 82.817 318.029 82.003C317.634 81.189 317.437 80.19 317.437 79.006C317.437 77.8713 317.659 76.9093 318.103 76.12C318.571 75.3307 319.188 74.7017 319.953 74.233C320.717 73.7643 321.593 73.4313 322.58 73.234C323.566 73.012 324.59 72.901 325.651 72.901C326.366 72.901 326.995 72.938 327.538 73.012C328.105 73.0613 328.561 73.1353 328.907 73.234V72.716C328.907 71.7787 328.623 71.0263 328.056 70.459C327.488 69.8917 326.502 69.608 325.096 69.608C324.158 69.608 323.233 69.682 322.321 69.83C321.408 69.9533 320.619 70.1383 319.953 70.385L319.25 65.945C319.57 65.8463 319.965 65.7477 320.434 65.649C320.927 65.5257 321.457 65.427 322.025 65.353C322.592 65.2543 323.184 65.1803 323.801 65.131C324.442 65.057 325.083 65.02 325.725 65.02ZM343.882 74.64C343.882 77.7233 345.127 79.265 347.619 79.265C348.186 79.265 348.716 79.191 349.21 79.043C349.703 78.895 350.122 78.7223 350.468 78.525V69.719C350.196 69.6697 349.876 69.6327 349.506 69.608C349.136 69.5587 348.704 69.534 348.211 69.534C346.755 69.534 345.67 70.015 344.955 70.977C344.239 71.939 343.882 73.16 343.882 74.64ZM355.981 82.558C355.981 85.74 355.167 88.0957 353.539 89.625C351.935 91.179 349.444 91.956 346.065 91.956C344.881 91.956 343.697 91.845 342.513 91.623C341.329 91.4257 340.231 91.1543 339.22 90.809L340.182 86.184C341.045 86.5293 341.945 86.8007 342.883 86.998C343.845 87.1953 344.93 87.294 346.139 87.294C347.717 87.294 348.827 86.9487 349.469 86.258C350.135 85.5673 350.468 84.6793 350.468 83.594V82.891C349.876 83.1623 349.259 83.372 348.618 83.52C348.001 83.6433 347.323 83.705 346.583 83.705C343.894 83.705 341.834 82.9157 340.404 81.337C338.973 79.7337 338.258 77.5013 338.258 74.64C338.258 73.2093 338.48 71.9143 338.924 70.755C339.368 69.571 340.009 68.5597 340.848 67.721C341.711 66.8823 342.759 66.241 343.993 65.797C345.226 65.3283 346.62 65.094 348.174 65.094C348.84 65.094 349.518 65.131 350.209 65.205C350.924 65.2543 351.627 65.3283 352.318 65.427C353.008 65.5257 353.662 65.649 354.279 65.797C354.92 65.9203 355.487 66.056 355.981 66.204V82.558ZM366.665 85H361.152V65.538H366.665V85ZM367.183 59.914C367.183 60.9253 366.85 61.727 366.184 62.319C365.542 62.8863 364.778 63.17 363.89 63.17C363.002 63.17 362.225 62.8863 361.559 62.319C360.917 61.727 360.597 60.9253 360.597 59.914C360.597 58.9027 360.917 58.1133 361.559 57.546C362.225 56.954 363.002 56.658 363.89 56.658C364.778 56.658 365.542 56.954 366.184 57.546C366.85 58.1133 367.183 58.9027 367.183 59.914ZM380.283 56.288C381.319 56.288 382.269 56.399 383.132 56.621C383.995 56.8183 384.661 57.0157 385.13 57.213L384.057 61.616C383.564 61.394 383.021 61.2337 382.429 61.135C381.862 61.0117 381.331 60.95 380.838 60.95C380.172 60.95 379.605 61.0487 379.136 61.246C378.692 61.4187 378.334 61.6653 378.063 61.986C377.816 62.3067 377.631 62.689 377.508 63.133C377.409 63.577 377.36 64.058 377.36 64.576V65.538H384.168V70.126H377.36V85H371.847V64.502C371.847 61.986 372.55 59.988 373.956 58.508C375.387 57.028 377.496 56.288 380.283 56.288ZM405.747 65.538C404.637 69.2873 403.478 72.8023 402.269 76.083C401.06 79.3637 399.741 82.5457 398.31 85.629C397.792 86.739 397.274 87.6763 396.756 88.441C396.238 89.2303 395.671 89.8717 395.054 90.365C394.437 90.883 393.734 91.253 392.945 91.475C392.18 91.7217 391.28 91.845 390.244 91.845C389.381 91.845 388.579 91.7587 387.839 91.586C387.124 91.438 386.532 91.2653 386.063 91.068L387.025 86.665C387.592 86.8623 388.098 86.998 388.542 87.072C388.986 87.146 389.455 87.183 389.948 87.183C390.935 87.183 391.687 86.9117 392.205 86.369C392.748 85.851 393.204 85.1233 393.574 84.186C392.316 81.7193 391.058 78.9567 389.8 75.898C388.542 72.8147 387.358 69.3613 386.248 65.538H392.094C392.341 66.5 392.624 67.5483 392.945 68.683C393.29 69.793 393.648 70.9277 394.018 72.087C394.388 73.2217 394.758 74.3317 395.128 75.417C395.523 76.5023 395.893 77.489 396.238 78.377C396.559 77.489 396.892 76.5023 397.237 75.417C397.582 74.3317 397.915 73.2217 398.236 72.087C398.581 70.9277 398.902 69.793 399.198 68.683C399.519 67.5483 399.802 66.5 400.049 65.538H405.747Z" fill="white"/>
    <path d="M22.618 132.033H20.435V127.26C18.7577 127.235 17.364 127.063 16.254 126.742C15.144 126.397 14.3177 126.064 13.775 125.743L14.478 123.671C14.7987 123.844 15.1563 124.016 15.551 124.189C15.9457 124.362 16.402 124.522 16.92 124.67C17.438 124.818 18.03 124.941 18.696 125.04C19.3867 125.114 20.1883 125.151 21.101 125.151C22.063 125.151 22.877 125.052 23.543 124.855C24.2337 124.658 24.7887 124.399 25.208 124.078C25.652 123.733 25.9603 123.326 26.133 122.857C26.3303 122.388 26.429 121.895 26.429 121.377C26.429 120.563 26.2687 119.885 25.948 119.342C25.652 118.799 25.2203 118.331 24.653 117.936C24.1103 117.517 23.4443 117.159 22.655 116.863C21.8657 116.542 21.0023 116.209 20.065 115.864C19.399 115.617 18.7207 115.346 18.03 115.05C17.3393 114.729 16.7103 114.347 16.143 113.903C15.6003 113.434 15.1563 112.879 14.811 112.238C14.4657 111.572 14.293 110.783 14.293 109.87C14.293 108.045 14.7863 106.639 15.773 105.652C16.7843 104.641 18.3383 103.987 20.435 103.691V99.288H22.618V103.58C23.7773 103.605 24.7887 103.728 25.652 103.95C26.54 104.147 27.28 104.369 27.872 104.616L27.243 106.651C26.8237 106.478 26.207 106.281 25.393 106.059C24.579 105.812 23.4813 105.689 22.1 105.689C18.5973 105.689 16.846 106.959 16.846 109.5C16.846 110.191 16.9693 110.77 17.216 111.239C17.4627 111.683 17.8203 112.078 18.289 112.423C18.7577 112.768 19.325 113.077 19.991 113.348C20.657 113.619 21.397 113.903 22.211 114.199C23.099 114.544 23.95 114.902 24.764 115.272C25.6027 115.617 26.3303 116.049 26.947 116.567C27.5883 117.085 28.094 117.714 28.464 118.454C28.834 119.194 29.019 120.094 29.019 121.155C29.019 122.882 28.4517 124.275 27.317 125.336C26.1823 126.397 24.616 127.001 22.618 127.149V132.033ZM48.7027 128.407C47.8887 126.902 47.0994 125.336 46.3347 123.708C45.5947 122.08 44.8917 120.44 44.2257 118.787C43.5844 117.11 42.9924 115.445 42.4497 113.792C41.907 112.115 41.4384 110.474 41.0437 108.871H43.5967C43.868 110.055 44.2134 111.338 44.6327 112.719C45.052 114.076 45.5207 115.482 46.0387 116.937C46.5814 118.392 47.1734 119.885 47.8147 121.414C48.456 122.943 49.1467 124.448 49.8867 125.928C50.4294 124.399 50.9104 122.956 51.3297 121.599C51.749 120.242 52.1314 118.898 52.4767 117.566C52.8467 116.209 53.192 114.828 53.5127 113.422C53.858 112.016 54.2157 110.499 54.5857 108.871H56.9907C56.2014 112.448 55.301 115.926 54.2897 119.305C53.2784 122.684 52.1807 125.78 50.9967 128.592C50.528 129.702 50.047 130.652 49.5537 131.441C49.0604 132.255 48.5054 132.921 47.8887 133.439C47.2967 133.957 46.5937 134.339 45.7797 134.586C44.9904 134.833 44.053 134.956 42.9677 134.956C42.351 134.956 41.7837 134.882 41.2657 134.734C40.7724 134.586 40.464 134.475 40.3407 134.401L40.8217 132.403C40.9204 132.477 41.1917 132.576 41.6357 132.699C42.1044 132.847 42.5854 132.921 43.0787 132.921C43.7694 132.921 44.386 132.847 44.9287 132.699C45.496 132.551 46.0017 132.292 46.4457 131.922C46.8897 131.577 47.2844 131.12 47.6297 130.553C47.9997 129.986 48.3574 129.27 48.7027 128.407ZM67.0411 126.261C67.9785 126.261 68.7925 126.236 69.4831 126.187C70.1985 126.113 70.8028 126.027 71.2961 125.928V119.194C71.0248 119.071 70.5931 118.947 70.0011 118.824C69.4091 118.676 68.5951 118.602 67.5591 118.602C66.9671 118.602 66.3505 118.651 65.7091 118.75C65.0678 118.824 64.4758 119.009 63.9331 119.305C63.3905 119.576 62.9465 119.959 62.6011 120.452C62.2558 120.945 62.0831 121.599 62.0831 122.413C62.0831 123.128 62.1941 123.733 62.4161 124.226C62.6628 124.719 62.9958 125.114 63.4151 125.41C63.8591 125.706 64.3771 125.928 64.9691 126.076C65.5858 126.199 66.2765 126.261 67.0411 126.261ZM66.8191 108.427C68.0771 108.427 69.1378 108.612 70.0011 108.982C70.8891 109.327 71.6045 109.821 72.1471 110.462C72.6898 111.079 73.0845 111.819 73.3311 112.682C73.5778 113.545 73.7011 114.483 73.7011 115.494V127.556C73.4545 127.63 73.0968 127.716 72.6281 127.815C72.1595 127.889 71.6168 127.975 71.0001 128.074C70.3835 128.173 69.6928 128.247 68.9281 128.296C68.1881 128.37 67.4235 128.407 66.6341 128.407C65.6228 128.407 64.6855 128.296 63.8221 128.074C62.9835 127.852 62.2435 127.507 61.6021 127.038C60.9855 126.545 60.4921 125.928 60.1221 125.188C59.7768 124.423 59.6041 123.498 59.6041 122.413C59.6041 121.377 59.8015 120.489 60.1961 119.749C60.5908 119.009 61.1458 118.405 61.8611 117.936C62.5765 117.443 63.4275 117.085 64.4141 116.863C65.4008 116.641 66.4738 116.53 67.6331 116.53C67.9785 116.53 68.3361 116.555 68.7061 116.604C69.1008 116.629 69.4708 116.678 69.8161 116.752C70.1861 116.801 70.4945 116.863 70.7411 116.937C71.0125 116.986 71.1975 117.036 71.2961 117.085V115.901C71.2961 115.235 71.2468 114.594 71.1481 113.977C71.0495 113.336 70.8275 112.768 70.4821 112.275C70.1615 111.757 69.6928 111.35 69.0761 111.054C68.4841 110.733 67.6948 110.573 66.7081 110.573C65.3021 110.573 64.2538 110.672 63.5631 110.869C62.8725 111.066 62.3668 111.227 62.0461 111.35L61.7131 109.241C62.1325 109.044 62.7738 108.859 63.6371 108.686C64.5251 108.513 65.5858 108.427 66.8191 108.427ZM86.3473 108.501C87.1367 108.501 87.8767 108.563 88.5673 108.686C89.2827 108.809 89.776 108.933 90.0473 109.056L89.5663 111.128C89.369 111.029 88.962 110.931 88.3453 110.832C87.7533 110.709 86.964 110.647 85.9773 110.647C84.9413 110.647 84.1027 110.721 83.4613 110.869C82.8447 111.017 82.4377 111.14 82.2403 111.239V128H79.8353V109.759C80.452 109.488 81.303 109.216 82.3883 108.945C83.4737 108.649 84.7933 108.501 86.3473 108.501ZM93.6742 109.537C94.3895 109.34 95.3515 109.118 96.5602 108.871C97.7689 108.624 99.2489 108.501 101 108.501C102.456 108.501 103.664 108.711 104.626 109.13C105.613 109.549 106.39 110.154 106.957 110.943C107.549 111.708 107.969 112.633 108.215 113.718C108.462 114.803 108.585 116 108.585 117.307V128H106.18V118.084C106.18 116.727 106.082 115.58 105.884 114.643C105.712 113.706 105.403 112.941 104.959 112.349C104.54 111.757 103.973 111.338 103.257 111.091C102.567 110.82 101.691 110.684 100.63 110.684C99.4955 110.684 98.5089 110.746 97.6702 110.869C96.8562 110.992 96.3259 111.103 96.0792 111.202V128H93.6742V109.537ZM125.564 128H123.159V108.871H125.564V128ZM126.119 103.099C126.119 103.666 125.946 104.123 125.601 104.468C125.255 104.789 124.836 104.949 124.343 104.949C123.849 104.949 123.43 104.789 123.085 104.468C122.739 104.123 122.567 103.666 122.567 103.099C122.567 102.532 122.739 102.088 123.085 101.767C123.43 101.422 123.849 101.249 124.343 101.249C124.836 101.249 125.255 101.422 125.601 101.767C125.946 102.088 126.119 102.532 126.119 103.099ZM131.939 109.537C132.654 109.34 133.616 109.118 134.825 108.871C136.034 108.624 137.514 108.501 139.265 108.501C140.72 108.501 141.929 108.711 142.891 109.13C143.878 109.549 144.655 110.154 145.222 110.943C145.814 111.708 146.233 112.633 146.48 113.718C146.727 114.803 146.85 116 146.85 117.307V128H144.445V118.084C144.445 116.727 144.346 115.58 144.149 114.643C143.976 113.706 143.668 112.941 143.224 112.349C142.805 111.757 142.237 111.338 141.522 111.091C140.831 110.82 139.956 110.684 138.895 110.684C137.76 110.684 136.774 110.746 135.935 110.869C135.121 110.992 134.591 111.103 134.344 111.202V128H131.939V109.537ZM156.926 126.298C158.308 126.298 159.442 126.076 160.33 125.632C161.243 125.163 161.699 124.386 161.699 123.301C161.699 122.783 161.613 122.339 161.44 121.969C161.292 121.599 161.033 121.266 160.663 120.97C160.293 120.674 159.8 120.39 159.183 120.119C158.591 119.848 157.851 119.527 156.963 119.157C156.248 118.861 155.57 118.565 154.928 118.269C154.287 117.948 153.72 117.591 153.226 117.196C152.733 116.777 152.338 116.283 152.042 115.716C151.746 115.149 151.598 114.458 151.598 113.644C151.598 112.09 152.178 110.832 153.337 109.87C154.521 108.908 156.137 108.427 158.184 108.427C159.492 108.427 160.565 108.538 161.403 108.76C162.267 108.982 162.871 109.179 163.216 109.352L162.661 111.498C162.365 111.35 161.86 111.153 161.144 110.906C160.454 110.659 159.43 110.536 158.073 110.536C157.531 110.536 157.013 110.598 156.519 110.721C156.051 110.82 155.631 110.992 155.261 111.239C154.891 111.461 154.595 111.757 154.373 112.127C154.151 112.472 154.04 112.904 154.04 113.422C154.04 113.94 154.139 114.384 154.336 114.754C154.534 115.124 154.817 115.457 155.187 115.753C155.582 116.024 156.051 116.283 156.593 116.53C157.161 116.777 157.802 117.048 158.517 117.344C159.257 117.64 159.96 117.948 160.626 118.269C161.317 118.565 161.921 118.935 162.439 119.379C162.957 119.798 163.377 120.316 163.697 120.933C164.018 121.525 164.178 122.277 164.178 123.19C164.178 124.917 163.525 126.224 162.217 127.112C160.935 128 159.171 128.444 156.926 128.444C155.249 128.444 153.966 128.296 153.078 128C152.19 127.729 151.598 127.519 151.302 127.371L151.931 125.188C152.005 125.237 152.166 125.324 152.412 125.447C152.659 125.546 152.992 125.669 153.411 125.817C153.831 125.94 154.324 126.051 154.891 126.15C155.483 126.249 156.162 126.298 156.926 126.298ZM171.087 108.871H178.709V110.906H171.087V121.081C171.087 122.166 171.174 123.054 171.346 123.745C171.544 124.411 171.815 124.929 172.16 125.299C172.506 125.669 172.925 125.916 173.418 126.039C173.912 126.162 174.454 126.224 175.046 126.224C176.058 126.224 176.872 126.113 177.488 125.891C178.105 125.644 178.586 125.422 178.931 125.225L179.523 127.223C179.178 127.445 178.574 127.704 177.71 128C176.847 128.271 175.91 128.407 174.898 128.407C173.714 128.407 172.715 128.259 171.901 127.963C171.112 127.642 170.471 127.174 169.977 126.557C169.509 125.916 169.176 125.126 168.978 124.189C168.781 123.252 168.682 122.142 168.682 120.859V103.247L171.087 102.803V108.871ZM189.17 126.261C190.107 126.261 190.921 126.236 191.612 126.187C192.327 126.113 192.932 126.027 193.425 125.928V119.194C193.154 119.071 192.722 118.947 192.13 118.824C191.538 118.676 190.724 118.602 189.688 118.602C189.096 118.602 188.479 118.651 187.838 118.75C187.197 118.824 186.605 119.009 186.062 119.305C185.519 119.576 185.075 119.959 184.73 120.452C184.385 120.945 184.212 121.599 184.212 122.413C184.212 123.128 184.323 123.733 184.545 124.226C184.792 124.719 185.125 125.114 185.544 125.41C185.988 125.706 186.506 125.928 187.098 126.076C187.715 126.199 188.405 126.261 189.17 126.261ZM188.948 108.427C190.206 108.427 191.267 108.612 192.13 108.982C193.018 109.327 193.733 109.821 194.276 110.462C194.819 111.079 195.213 111.819 195.46 112.682C195.707 113.545 195.83 114.483 195.83 115.494V127.556C195.583 127.63 195.226 127.716 194.757 127.815C194.288 127.889 193.746 127.975 193.129 128.074C192.512 128.173 191.822 128.247 191.057 128.296C190.317 128.37 189.552 128.407 188.763 128.407C187.752 128.407 186.814 128.296 185.951 128.074C185.112 127.852 184.372 127.507 183.731 127.038C183.114 126.545 182.621 125.928 182.251 125.188C181.906 124.423 181.733 123.498 181.733 122.413C181.733 121.377 181.93 120.489 182.325 119.749C182.72 119.009 183.275 118.405 183.99 117.936C184.705 117.443 185.556 117.085 186.543 116.863C187.53 116.641 188.603 116.53 189.762 116.53C190.107 116.53 190.465 116.555 190.835 116.604C191.23 116.629 191.6 116.678 191.945 116.752C192.315 116.801 192.623 116.863 192.87 116.937C193.141 116.986 193.326 117.036 193.425 117.085V115.901C193.425 115.235 193.376 114.594 193.277 113.977C193.178 113.336 192.956 112.768 192.611 112.275C192.29 111.757 191.822 111.35 191.205 111.054C190.613 110.733 189.824 110.573 188.837 110.573C187.431 110.573 186.383 110.672 185.692 110.869C185.001 111.066 184.496 111.227 184.175 111.35L183.842 109.241C184.261 109.044 184.903 108.859 185.766 108.686C186.654 108.513 187.715 108.427 188.948 108.427ZM206.811 128.333C205.997 128.308 205.282 128.197 204.665 128C204.073 127.827 203.568 127.556 203.148 127.186C202.754 126.791 202.445 126.298 202.223 125.706C202.026 125.089 201.927 124.325 201.927 123.412V99.732L204.332 99.288V123.338C204.332 123.93 204.382 124.411 204.48 124.781C204.604 125.126 204.776 125.41 204.998 125.632C205.22 125.829 205.504 125.977 205.849 126.076C206.219 126.175 206.651 126.261 207.144 126.335L206.811 128.333ZM216.242 128.333C215.428 128.308 214.713 128.197 214.096 128C213.504 127.827 212.998 127.556 212.579 127.186C212.184 126.791 211.876 126.298 211.654 125.706C211.457 125.089 211.358 124.325 211.358 123.412V99.732L213.763 99.288V123.338C213.763 123.93 213.812 124.411 213.911 124.781C214.034 125.126 214.207 125.41 214.429 125.632C214.651 125.829 214.935 125.977 215.28 126.076C215.65 126.175 216.082 126.261 216.575 126.335L216.242 128.333ZM233.167 126.298C234.548 126.298 235.683 126.076 236.571 125.632C237.483 125.163 237.94 124.386 237.94 123.301C237.94 122.783 237.853 122.339 237.681 121.969C237.533 121.599 237.274 121.266 236.904 120.97C236.534 120.674 236.04 120.39 235.424 120.119C234.832 119.848 234.092 119.527 233.204 119.157C232.488 118.861 231.81 118.565 231.169 118.269C230.527 117.948 229.96 117.591 229.467 117.196C228.973 116.777 228.579 116.283 228.283 115.716C227.987 115.149 227.839 114.458 227.839 113.644C227.839 112.09 228.418 110.832 229.578 109.87C230.762 108.908 232.377 108.427 234.425 108.427C235.732 108.427 236.805 108.538 237.644 108.76C238.507 108.982 239.111 109.179 239.457 109.352L238.902 111.498C238.606 111.35 238.1 111.153 237.385 110.906C236.694 110.659 235.67 110.536 234.314 110.536C233.771 110.536 233.253 110.598 232.76 110.721C232.291 110.82 231.872 110.992 231.501 111.239C231.131 111.461 230.836 111.757 230.614 112.127C230.392 112.472 230.281 112.904 230.281 113.422C230.281 113.94 230.379 114.384 230.577 114.754C230.774 115.124 231.058 115.457 231.428 115.753C231.822 116.024 232.291 116.283 232.834 116.53C233.401 116.777 234.042 117.048 234.758 117.344C235.498 117.64 236.201 117.948 236.867 118.269C237.557 118.565 238.162 118.935 238.68 119.379C239.198 119.798 239.617 120.316 239.938 120.933C240.258 121.525 240.419 122.277 240.419 123.19C240.419 124.917 239.765 126.224 238.458 127.112C237.175 128 235.411 128.444 233.167 128.444C231.489 128.444 230.207 128.296 229.319 128C228.431 127.729 227.839 127.519 227.543 127.371L228.172 125.188C228.246 125.237 228.406 125.324 228.653 125.447C228.899 125.546 229.232 125.669 229.652 125.817C230.071 125.94 230.564 126.051 231.132 126.15C231.724 126.249 232.402 126.298 233.167 126.298ZM247.328 108.871H254.95V110.906H247.328V121.081C247.328 122.166 247.414 123.054 247.587 123.745C247.784 124.411 248.055 124.929 248.401 125.299C248.746 125.669 249.165 125.916 249.659 126.039C250.152 126.162 250.695 126.224 251.287 126.224C252.298 126.224 253.112 126.113 253.729 125.891C254.345 125.644 254.826 125.422 255.172 125.225L255.764 127.223C255.418 127.445 254.814 127.704 253.951 128C253.087 128.271 252.15 128.407 251.139 128.407C249.955 128.407 248.956 128.259 248.142 127.963C247.352 127.642 246.711 127.174 246.218 126.557C245.749 125.916 245.416 125.126 245.219 124.189C245.021 123.252 244.923 122.142 244.923 120.859V103.247L247.328 102.803V108.871ZM275.696 118.454C275.696 119.959 275.474 121.328 275.03 122.561C274.611 123.794 274.007 124.843 273.217 125.706C272.453 126.569 271.54 127.248 270.479 127.741C269.419 128.21 268.247 128.444 266.964 128.444C265.682 128.444 264.51 128.21 263.449 127.741C262.389 127.248 261.464 126.569 260.674 125.706C259.91 124.843 259.305 123.794 258.861 122.561C258.442 121.328 258.232 119.959 258.232 118.454C258.232 116.949 258.442 115.58 258.861 114.347C259.305 113.114 259.91 112.065 260.674 111.202C261.464 110.314 262.389 109.636 263.449 109.167C264.51 108.674 265.682 108.427 266.964 108.427C268.247 108.427 269.419 108.674 270.479 109.167C271.54 109.636 272.453 110.314 273.217 111.202C274.007 112.065 274.611 113.114 275.03 114.347C275.474 115.58 275.696 116.949 275.696 118.454ZM273.143 118.454C273.143 116.061 272.588 114.162 271.478 112.756C270.368 111.325 268.864 110.61 266.964 110.61C265.065 110.61 263.56 111.325 262.45 112.756C261.34 114.162 260.785 116.061 260.785 118.454C260.785 120.847 261.34 122.746 262.45 124.152C263.56 125.558 265.065 126.261 266.964 126.261C268.864 126.261 270.368 125.558 271.478 124.152C272.588 122.746 273.143 120.847 273.143 118.454ZM287.426 108.501C288.216 108.501 288.956 108.563 289.646 108.686C290.362 108.809 290.855 108.933 291.126 109.056L290.645 111.128C290.448 111.029 290.041 110.931 289.424 110.832C288.832 110.709 288.043 110.647 287.056 110.647C286.02 110.647 285.182 110.721 284.54 110.869C283.924 111.017 283.517 111.14 283.319 111.239V128H280.914V109.759C281.531 109.488 282.382 109.216 283.467 108.945C284.553 108.649 285.872 108.501 287.426 108.501ZM300.784 126.261C301.722 126.261 302.536 126.236 303.226 126.187C303.942 126.113 304.546 126.027 305.039 125.928V119.194C304.768 119.071 304.336 118.947 303.744 118.824C303.152 118.676 302.338 118.602 301.302 118.602C300.71 118.602 300.094 118.651 299.452 118.75C298.811 118.824 298.219 119.009 297.676 119.305C297.134 119.576 296.69 119.959 296.344 120.452C295.999 120.945 295.826 121.599 295.826 122.413C295.826 123.128 295.937 123.733 296.159 124.226C296.406 124.719 296.739 125.114 297.158 125.41C297.602 125.706 298.12 125.928 298.712 126.076C299.329 126.199 300.02 126.261 300.784 126.261ZM300.562 108.427C301.82 108.427 302.881 108.612 303.744 108.982C304.632 109.327 305.348 109.821 305.89 110.462C306.433 111.079 306.828 111.819 307.074 112.682C307.321 113.545 307.444 114.483 307.444 115.494V127.556C307.198 127.63 306.84 127.716 306.371 127.815C305.903 127.889 305.36 127.975 304.743 128.074C304.127 128.173 303.436 128.247 302.671 128.296C301.931 128.37 301.167 128.407 300.377 128.407C299.366 128.407 298.429 128.296 297.565 128.074C296.727 127.852 295.987 127.507 295.345 127.038C294.729 126.545 294.235 125.928 293.865 125.188C293.52 124.423 293.347 123.498 293.347 122.413C293.347 121.377 293.545 120.489 293.939 119.749C294.334 119.009 294.889 118.405 295.604 117.936C296.32 117.443 297.171 117.085 298.157 116.863C299.144 116.641 300.217 116.53 301.376 116.53C301.722 116.53 302.079 116.555 302.449 116.604C302.844 116.629 303.214 116.678 303.559 116.752C303.929 116.801 304.238 116.863 304.484 116.937C304.756 116.986 304.941 117.036 305.039 117.085V115.901C305.039 115.235 304.99 114.594 304.891 113.977C304.793 113.336 304.571 112.768 304.225 112.275C303.905 111.757 303.436 111.35 302.819 111.054C302.227 110.733 301.438 110.573 300.451 110.573C299.045 110.573 297.997 110.672 297.306 110.869C296.616 111.066 296.11 111.227 295.789 111.35L295.456 109.241C295.876 109.044 296.517 108.859 297.38 108.686C298.268 108.513 299.329 108.427 300.562 108.427ZM326.047 125.78C325.899 125.903 325.677 126.051 325.381 126.224C325.085 126.372 324.715 126.532 324.271 126.705C323.852 126.878 323.359 127.026 322.791 127.149C322.249 127.248 321.632 127.297 320.941 127.297C319.831 127.297 318.758 127.124 317.722 126.779C316.686 126.434 315.774 125.891 314.984 125.151C314.22 124.411 313.603 123.461 313.134 122.302C312.666 121.118 312.431 119.687 312.431 118.01C312.431 116.653 312.641 115.395 313.06 114.236C313.48 113.077 314.072 112.078 314.836 111.239C315.626 110.376 316.575 109.71 317.685 109.241C318.82 108.748 320.09 108.501 321.496 108.501C323.272 108.501 324.691 108.624 325.751 108.871C326.837 109.093 327.725 109.315 328.415 109.537V127.001C328.415 129.862 327.675 131.897 326.195 133.106C324.715 134.339 322.483 134.956 319.498 134.956C318.265 134.956 317.143 134.857 316.131 134.66C315.145 134.487 314.294 134.278 313.578 134.031L314.059 131.848C314.651 132.119 315.453 132.354 316.464 132.551C317.5 132.748 318.536 132.847 319.572 132.847C321.842 132.847 323.482 132.403 324.493 131.515C325.529 130.652 326.047 129.159 326.047 127.038V125.78ZM326.01 111.202C325.591 111.079 325.048 110.968 324.382 110.869C323.716 110.746 322.767 110.684 321.533 110.684C320.497 110.684 319.572 110.869 318.758 111.239C317.969 111.584 317.291 112.09 316.723 112.756C316.156 113.397 315.724 114.174 315.428 115.087C315.132 115.975 314.984 116.962 314.984 118.047C314.984 119.305 315.157 120.39 315.502 121.303C315.848 122.191 316.292 122.919 316.834 123.486C317.402 124.053 318.043 124.473 318.758 124.744C319.474 124.991 320.201 125.114 320.941 125.114C322.027 125.114 323.013 124.954 323.901 124.633C324.814 124.312 325.517 123.942 326.01 123.523V111.202ZM337.193 128H334.788V108.871H337.193V128ZM337.748 103.099C337.748 103.666 337.576 104.123 337.23 104.468C336.885 104.789 336.466 104.949 335.972 104.949C335.479 104.949 335.06 104.789 334.714 104.468C334.369 104.123 334.196 103.666 334.196 103.099C334.196 102.532 334.369 102.088 334.714 101.767C335.06 101.422 335.479 101.249 335.972 101.249C336.466 101.249 336.885 101.422 337.23 101.767C337.576 102.088 337.748 102.532 337.748 103.099ZM350.599 99.288C351.635 99.288 352.473 99.3743 353.115 99.547C353.781 99.695 354.212 99.8307 354.41 99.954L353.929 102.026C353.657 101.903 353.25 101.779 352.708 101.656C352.19 101.508 351.524 101.434 350.71 101.434C349.008 101.434 347.787 101.866 347.047 102.729C346.331 103.592 345.974 104.974 345.974 106.873V108.871H353.67V110.906H345.974V128H343.569V106.799C343.569 104.308 344.136 102.433 345.271 101.175C346.43 99.917 348.206 99.288 350.599 99.288ZM363.383 128.407C362.569 126.902 361.78 125.336 361.015 123.708C360.275 122.08 359.572 120.44 358.906 118.787C358.265 117.11 357.673 115.445 357.13 113.792C356.588 112.115 356.119 110.474 355.724 108.871H358.277C358.549 110.055 358.894 111.338 359.313 112.719C359.733 114.076 360.201 115.482 360.719 116.937C361.262 118.392 361.854 119.885 362.495 121.414C363.137 122.943 363.827 124.448 364.567 125.928C365.11 124.399 365.591 122.956 366.01 121.599C366.43 120.242 366.812 118.898 367.157 117.566C367.527 116.209 367.873 114.828 368.193 113.422C368.539 112.016 368.896 110.499 369.266 108.871H371.671C370.882 112.448 369.982 115.926 368.97 119.305C367.959 122.684 366.861 125.78 365.677 128.592C365.209 129.702 364.728 130.652 364.234 131.441C363.741 132.255 363.186 132.921 362.569 133.439C361.977 133.957 361.274 134.339 360.46 134.586C359.671 134.833 358.734 134.956 357.648 134.956C357.032 134.956 356.464 134.882 355.946 134.734C355.453 134.586 355.145 134.475 355.021 134.401L355.502 132.403C355.601 132.477 355.872 132.576 356.316 132.699C356.785 132.847 357.266 132.921 357.759 132.921C358.45 132.921 359.067 132.847 359.609 132.699C360.177 132.551 360.682 132.292 361.126 131.922C361.57 131.577 361.965 131.12 362.31 130.553C362.68 129.986 363.038 129.27 363.383 128.407Z" fill="white"/>
</svg>