<svg width="685" height="1179" viewBox="0 0 685 1179" fill="none" xmlns="http://www.w3.org/2000/svg">
    <path d="M406.412 54.4376L407.619 1137.79C407.636 1154.44 391.5 1168.19 371.3 1168.73L368.675 1168.8C348.475 1169.34 331.621 1156.49 330.742 1139.87L273.548 58.0227C272.642 40.8879 289.012 26.341 309.831 25.7786L368.443 24.1992C389.262 23.6368 406.393 37.2799 406.412 54.4376Z" fill="#AE95D0"/>
    <path d="M368.443 24.1991L334.998 25.1015L373.702 1168.57C392.757 1167.04 407.635 1153.77 407.616 1137.79L406.412 54.4377C406.393 37.2799 389.262 23.6367 368.443 24.1991Z" fill="#796891"/>
    <path d="M406.412 54.4376L407.619 1137.79C407.636 1154.44 391.5 1168.19 371.3 1168.73L368.675 1168.8C348.475 1169.34 331.621 1156.49 330.742 1139.87L273.548 58.0227C272.642 40.8879 289.012 26.341 309.831 25.7786L368.443 24.1992C389.262 23.6368 406.393 37.2799 406.412 54.4376Z" fill="#AE95D0"/>
    <path d="M368.443 24.1991L334.998 25.1015L373.702 1168.57C392.757 1167.04 407.635 1153.77 407.616 1137.79L406.412 54.4377C406.393 37.2799 389.262 23.6367 368.443 24.1991Z" fill="#796891"/>
    <path d="M320.386 944.037L330.739 1139.86C331.617 1156.49 348.471 1169.35 368.672 1168.8L371.297 1168.73C391.497 1168.19 407.634 1154.44 407.616 1137.79L407.397 941.69L320.386 944.037Z" fill="#FFE55A"/>
    <path d="M407.4 941.691L366.062 942.807L373.704 1168.57C374.89 1168.47 376.063 1168.33 377.213 1168.15C377.22 1168.15 377.227 1168.15 377.234 1168.15C378.372 1167.96 379.493 1167.74 380.591 1167.47C380.615 1167.47 380.64 1167.46 380.664 1167.46C381.74 1167.19 382.794 1166.89 383.827 1166.56C383.878 1166.54 383.932 1166.52 383.983 1166.51C384.985 1166.17 385.964 1165.81 386.921 1165.41C387.003 1165.38 387.085 1165.34 387.166 1165.31C388.086 1164.92 388.984 1164.49 389.859 1164.05C389.974 1163.99 390.089 1163.93 390.204 1163.87C391.034 1163.43 391.844 1162.97 392.627 1162.48C392.778 1162.38 392.926 1162.29 393.077 1162.19C393.81 1161.72 394.525 1161.23 395.217 1160.72C395.402 1160.58 395.578 1160.44 395.758 1160.3C396.395 1159.8 397.019 1159.3 397.612 1158.77C397.82 1158.58 398.017 1158.39 398.22 1158.2C398.762 1157.69 399.292 1157.17 399.794 1156.64C400.021 1156.4 400.233 1156.15 400.452 1155.9C400.898 1155.39 401.341 1154.88 401.75 1154.35C401.983 1154.05 402.196 1153.73 402.417 1153.42C402.776 1152.92 403.133 1152.43 403.457 1151.91C403.688 1151.54 403.889 1151.16 404.102 1150.78C404.377 1150.3 404.658 1149.81 404.904 1149.32C405.116 1148.88 405.292 1148.43 405.479 1147.99C405.676 1147.53 405.892 1147.07 406.062 1146.59C406.244 1146.09 406.382 1145.57 406.534 1145.05C406.659 1144.62 406.81 1144.19 406.915 1143.75C407.059 1143.14 407.15 1142.52 407.251 1141.9C407.308 1141.54 407.396 1141.18 407.438 1140.82C407.552 1139.85 407.611 1138.87 407.612 1137.88C407.612 1137.85 407.617 1137.82 407.618 1137.79L407.4 941.691Z" fill="#FFD500"/>
</svg>