<svg width="1231" height="1151" viewBox="0 0 1231 1151" fill="none" xmlns="http://www.w3.org/2000/svg">
    <path d="M1117.9 1050.23C1117.9 1050.23 966.801 611.097 966.801 124.177H263.649C263.649 611.097 112.552 1050.23 112.552 1050.23H113.243C112.787 1051.9 112.552 1053.58 112.552 1055.27C112.552 1108.14 337.604 1151 615.225 1151C892.845 1151 1117.9 1108.14 1117.9 1055.28C1117.9 1053.59 1117.66 1051.91 1117.21 1050.24L1117.9 1050.23Z" fill="#AE95D0"/>
    <path d="M1117.9 1050.23C1117.9 1050.23 1117.86 1050.12 1117.82 1050.01C1117.8 1049.94 1117.75 1049.81 1117.72 1049.71C1117.68 1049.61 1117.63 1049.47 1117.59 1049.33C1117.51 1049.09 1117.41 1048.82 1117.3 1048.48C1117.3 1048.46 1117.29 1048.44 1117.28 1048.42C1115.56 1043.3 1110.29 1027.41 1102.71 1002.39C1064.39 875.969 966.798 515.537 966.798 124.173H792.65C792.65 403.138 842.246 666.417 884.607 840.421C912.99 957.009 826.847 1070.12 706.895 1073.35C679.315 1074.09 648.835 1074.51 615.221 1074.51C380.109 1074.51 182.72 1043.77 127.779 1002.25C118.4 1033.2 112.549 1050.23 112.549 1050.23H113.24C112.784 1051.9 112.549 1053.58 112.549 1055.27C112.549 1102.48 292.035 1141.71 528.148 1149.56C528.154 1149.56 528.157 1149.56 528.164 1149.56C535.197 1149.79 542.282 1150 549.414 1150.18C549.459 1150.18 549.504 1150.18 549.548 1150.18C556.228 1150.35 562.956 1150.48 569.716 1150.6C570.611 1150.61 571.503 1150.63 572.398 1150.64C578.874 1150.75 585.386 1150.83 591.929 1150.88C592.942 1150.89 593.961 1150.9 594.974 1150.91C601.692 1150.96 608.436 1150.99 615.221 1150.99C892.842 1150.99 1117.89 1108.13 1117.89 1055.27C1117.89 1053.58 1117.66 1051.9 1117.2 1050.23H1117.9V1050.23Z" fill="#796891"/>
    <path d="M615.225 456.764C751.222 456.764 878.013 447.318 985.137 431.037C973.952 333.69 966.801 230.067 966.801 124.177H263.649C263.649 230.067 256.497 333.69 245.316 431.037C352.436 447.322 479.227 456.764 615.225 456.764Z" fill="#FFE55A"/>
    <path d="M985.137 431.037C985.121 430.903 985.108 430.766 985.092 430.636C980.935 394.397 977.335 357.292 974.456 319.518C974.424 319.113 974.395 318.708 974.367 318.304C973.455 306.282 972.621 294.192 971.859 282.04C971.799 281.087 971.745 280.135 971.684 279.182C970.967 267.501 970.321 255.768 969.754 243.982C969.696 242.768 969.639 241.554 969.582 240.341C969.034 228.666 968.566 216.943 968.177 205.179C968.139 203.997 968.097 202.815 968.059 201.633C967.677 189.601 967.381 177.525 967.173 165.414C967.158 164.585 967.138 163.757 967.126 162.926C966.919 150.046 966.804 137.129 966.804 124.173H792.656C792.656 236.91 800.76 347.079 813.21 449.838C874.474 445.449 932.212 439.084 985.137 431.037Z" fill="#FFD500"/>
    <path d="M615.225 297.257C955.004 297.257 1230.45 230.859 1230.45 148.954C1230.45 67.0482 955.004 0.650635 615.225 0.650635C275.445 0.650635 0 67.0482 0 148.954C0 230.859 275.445 297.257 615.225 297.257Z" fill="#796891"/>
    <path d="M615.225 203.099C482.48 203.099 352.911 192.277 250.387 172.629C227.662 168.274 207.653 163.748 190.12 159.234C179.477 156.494 179.477 141.439 190.12 138.696C207.653 134.182 227.665 129.656 250.387 125.301C352.911 105.653 482.477 94.8313 615.225 94.8313C747.97 94.8313 877.539 105.653 980.062 125.301C1002.79 129.656 1022.8 134.179 1040.33 138.696C1050.97 141.436 1050.97 156.491 1040.33 159.234C1022.8 163.748 1002.79 168.274 980.062 172.629C877.539 192.28 747.97 203.099 615.225 203.099Z" fill="#574A68"/>
</svg>