<svg width="320" height="512" viewBox="0 0 320 512" fill="none" xmlns="http://www.w3.org/2000/svg">
    <path d="M286.02 192.47H33.5092C15.0026 192.47 0 207.473 0 225.98V478.491C0 496.997 15.0026 512 33.5092 512H286.02C304.527 512 319.53 496.997 319.53 478.491V225.98C319.53 207.473 304.527 192.47 286.02 192.47Z" fill="#AE95D0"/>
    <path d="M159.733 469.321C222.44 469.321 273.274 418.487 273.274 355.78C273.274 293.073 222.44 242.239 159.733 242.239C97.0261 242.239 46.1923 293.073 46.1923 355.78C46.1923 418.487 97.0261 469.321 159.733 469.321Z" fill="#804B9F"/>
    <path d="M159.765 0C132.12 0.00141143 105.608 10.984 86.0595 30.5319C66.5116 50.0799 55.529 76.5923 55.5276 104.237V192.47H94.8328V104.221C94.8328 87.0002 101.674 70.4845 113.851 58.3074C126.028 46.1303 142.544 39.2892 159.765 39.2892C176.986 39.2892 193.502 46.1303 205.679 58.3074C217.856 70.4845 224.697 87.0002 224.697 104.221V192.47H264.007V104.237C264.006 76.5913 253.023 50.0782 233.474 30.5301C213.924 10.9819 187.411 -3.60338e-08 159.765 0V0Z" fill="#FFE55A"/>
    <path d="M159.733 388.736C187.496 388.736 210.002 366.229 210.002 338.466C210.002 310.704 187.496 288.197 159.733 288.197C131.97 288.197 109.464 310.704 109.464 338.466C109.464 366.229 131.97 388.736 159.733 388.736Z" fill="#F6EFEA"/>
    <path d="M159.733 388.73C143.375 388.734 127.52 394.381 114.844 404.72C102.168 415.058 93.447 429.454 90.1544 445.477C110.055 460.934 134.537 469.325 159.736 469.325C184.934 469.325 209.416 460.934 229.317 445.477C226.024 429.453 217.303 415.056 204.625 404.718C191.948 394.379 176.091 388.732 159.733 388.73V388.73Z" fill="#FFE55A"/>
</svg>