<svg width="512" height="512" viewBox="0 0 512 512" fill="none" xmlns="http://www.w3.org/2000/svg">
    <path d="M376.626 270.091V241.909C376.626 237.357 372.936 233.668 368.385 233.668H349.226C345.668 233.668 342.511 231.385 341.406 228.003C339.626 222.554 337.339 217.334 334.6 212.399C332.813 209.178 333.36 205.169 335.965 202.564L348.777 189.752C351.995 186.534 351.995 181.315 348.777 178.097L331.395 160.715C328.177 157.497 322.958 157.497 319.74 160.715L306.186 174.269C303.674 176.781 299.83 177.41 296.663 175.799C292.572 173.717 288.301 171.94 283.878 170.496C280.507 169.396 278.243 166.231 278.243 162.685V143.526C278.243 138.974 274.553 135.285 270.002 135.285H245.42C240.868 135.285 237.179 138.975 237.179 143.526V161.64C237.179 165.318 234.739 168.542 231.204 169.555C225.689 171.136 220.391 173.231 215.365 175.785C212.188 177.4 208.335 176.789 205.815 174.269L192.261 160.715C189.043 157.497 183.824 157.497 180.606 160.715L163.224 178.097C160.006 181.315 160.006 186.534 163.224 189.752L176.036 202.564C178.641 205.169 179.188 209.178 177.401 212.399C174.663 217.334 172.375 222.554 170.595 228.003C169.49 231.385 166.333 233.668 162.775 233.668H143.616C139.064 233.668 135.375 237.358 135.375 241.909V270.091C135.375 274.643 139.065 278.332 143.616 278.332H162.775C166.333 278.332 169.49 280.615 170.595 283.997C172.375 289.447 174.662 294.666 177.401 299.602C179.188 302.823 178.641 306.832 176.036 309.437L163.224 322.249C160.006 325.468 160.006 330.686 163.224 333.904L180.606 351.285C183.824 354.503 189.043 354.503 192.261 351.285L205.815 337.731C208.335 335.211 212.187 334.6 215.365 336.215C220.391 338.769 225.689 340.864 231.204 342.445C234.739 343.458 237.179 346.682 237.179 350.36V368.474C237.179 373.026 240.869 376.715 245.42 376.715H270.001C274.553 376.715 278.242 373.025 278.242 368.474V349.315C278.242 345.769 280.506 342.604 283.877 341.504C288.3 340.061 292.571 338.283 296.662 336.201C299.829 334.59 303.673 335.219 306.185 337.731L319.739 351.285C322.958 354.503 328.176 354.503 331.394 351.285L348.776 333.904C351.995 330.686 351.995 325.467 348.776 322.249L335.964 309.437C333.359 306.832 332.812 302.823 334.599 299.602C337.337 294.667 339.625 289.447 341.405 283.997C342.51 280.615 345.667 278.332 349.225 278.332H368.384C372.936 278.332 376.626 274.643 376.626 270.091ZM256 287.22C238.758 287.22 224.78 273.243 224.78 256C224.78 238.757 238.757 224.78 256 224.78C273.243 224.78 287.22 238.757 287.22 256C287.22 273.243 273.242 287.22 256 287.22Z" fill="#AE95D0"/>
    <path d="M376.626 270.091V241.909C376.626 237.357 372.936 233.668 368.385 233.668H349.217C345.644 233.668 342.497 231.36 341.382 227.965C341.304 227.729 341.226 227.493 341.147 227.257C320.613 277.975 270.895 313.756 212.814 313.756C200.258 313.756 188.097 312.074 176.533 308.941L163.225 322.249C160.007 325.468 160.007 330.686 163.225 333.904L180.607 351.285C183.825 354.503 189.044 354.503 192.262 351.285L205.816 337.731C208.336 335.211 212.188 334.6 215.366 336.215C220.392 338.769 225.69 340.864 231.205 342.445C234.74 343.458 237.18 346.682 237.18 350.36V368.474C237.18 373.026 240.87 376.715 245.421 376.715H270.002C274.554 376.715 278.243 373.025 278.243 368.474V349.315C278.243 345.769 280.507 342.604 283.878 341.504C288.301 340.061 292.572 338.283 296.663 336.201C299.83 334.59 303.674 335.219 306.186 337.731L319.74 351.285C322.959 354.503 328.177 354.503 331.395 351.285L348.777 333.904C351.996 330.686 351.996 325.467 348.777 322.249L335.965 309.437C333.36 306.832 332.813 302.823 334.6 299.602C337.338 294.667 339.626 289.447 341.406 283.997C342.511 280.615 345.668 278.332 349.226 278.332H368.385C372.936 278.332 376.626 274.643 376.626 270.091Z" fill="#804B9F"/>
    <path d="M492.266 43.251C487.567 32.833 479.167 24.433 468.749 19.734C466.557 18.745 465.17 16.538 465.17 14.133V6.181C465.17 2.767 462.403 0 458.989 0H440.132C436.718 0 433.951 2.767 433.951 6.181V14.133C433.951 16.538 432.565 18.745 430.372 19.734C419.954 24.433 411.554 32.833 406.855 43.251C405.866 45.443 403.659 46.83 401.254 46.83H393.302C389.888 46.83 387.121 49.597 387.121 53.011V78.049H401.254C403.659 78.049 405.866 79.435 406.855 81.628C411.554 92.046 419.954 100.446 430.372 105.145C432.564 106.134 433.951 108.341 433.951 110.746V118.698C433.951 122.112 436.718 124.879 440.132 124.879H458.989C462.403 124.879 465.17 122.112 465.17 118.698V110.746C465.17 108.341 466.556 106.134 468.749 105.145C479.167 100.446 487.567 92.046 492.266 81.628C493.255 79.436 495.462 78.049 497.867 78.049H505.819C509.233 78.049 512 75.282 512 71.868V53.01C512 49.596 509.233 46.829 505.819 46.829H497.867C495.462 46.829 493.255 45.443 492.266 43.251V43.251ZM449.561 78.049C440.94 78.049 433.951 71.06 433.951 62.439C433.951 53.818 440.94 46.829 449.561 46.829C458.182 46.829 465.171 53.818 465.171 62.439C465.171 71.06 458.182 78.049 449.561 78.049Z" fill="#FFE55A"/>
    <path d="M492.279 43.286C491.29 41.098 490.137 38.999 488.84 37.003C485.907 71.076 457.337 97.821 422.504 97.821C421.27 97.821 420.045 97.782 418.828 97.715C422.277 100.723 426.163 103.241 430.385 105.148C432.573 106.136 433.952 108.343 433.952 110.744V118.697C433.952 122.111 436.719 124.878 440.133 124.878H458.99C462.404 124.878 465.171 122.111 465.171 118.697V110.745C465.171 108.34 466.557 106.133 468.75 105.144C479.168 100.445 487.568 92.045 492.267 81.627C493.256 79.435 495.463 78.048 497.868 78.048H505.82C509.234 78.048 512.001 75.281 512.001 71.867V53.01C512.001 49.596 509.234 46.829 505.82 46.829H497.867C495.475 46.829 493.264 45.465 492.279 43.286V43.286Z" fill="#FFD500"/>
    <path d="M105.144 43.251C100.445 32.833 92.045 24.433 81.627 19.734C79.435 18.745 78.048 16.538 78.048 14.133V6.181C78.049 2.767 75.281 0 71.868 0H53.01C49.596 0 46.829 2.767 46.829 6.181V14.133C46.829 16.538 45.443 18.745 43.25 19.734C32.832 24.433 24.432 32.833 19.733 43.251C18.744 45.443 16.537 46.83 14.132 46.83H6.181C2.767 46.829 0 49.597 0 53.01V71.867C0 75.281 2.767 78.048 6.181 78.048H14.133C16.538 78.048 18.745 79.434 19.734 81.627C24.433 92.045 32.833 100.445 43.251 105.144C45.443 106.133 46.83 108.34 46.83 110.745V118.697C46.83 122.111 49.597 124.878 53.011 124.878H71.868C75.282 124.878 78.049 122.111 78.049 118.697V110.745C78.049 108.34 79.435 106.133 81.628 105.144C92.046 100.445 100.446 92.045 105.145 81.627C106.134 79.435 108.341 78.048 110.746 78.048H118.698C122.112 78.048 124.879 75.281 124.879 71.867V53.01C124.879 49.596 122.112 46.829 118.698 46.829H110.746C108.34 46.829 106.133 45.443 105.144 43.251V43.251ZM62.439 78.049C53.818 78.049 46.829 71.06 46.829 62.439C46.829 53.818 53.818 46.829 62.439 46.829C71.06 46.829 78.049 53.818 78.049 62.439C78.049 71.06 71.06 78.049 62.439 78.049Z" fill="#FFE55A"/>
    <path d="M118.697 46.829H110.745C108.34 46.829 106.133 45.443 105.144 43.25C104.162 41.073 103.009 38.99 101.72 37.005C101.719 37.004 101.719 37.004 101.718 37.003C98.7851 71.076 70.2151 97.821 35.3821 97.821C34.1481 97.821 32.9231 97.782 31.7061 97.715C31.7081 97.716 31.7081 97.718 31.7091 97.719C35.1541 100.723 39.0331 103.241 43.2511 105.143C45.4431 106.132 46.8301 108.339 46.8301 110.744V118.696C46.8301 122.11 49.5971 124.877 53.0111 124.877H71.868C75.282 124.877 78.0491 122.11 78.0491 118.696V110.744C78.0491 108.339 79.4351 106.132 81.6281 105.143C92.0461 100.444 100.446 92.044 105.145 81.626C106.134 79.434 108.341 78.047 110.746 78.047H118.698C122.112 78.047 124.879 75.28 124.879 71.866V53.01C124.878 49.597 122.111 46.829 118.697 46.829V46.829Z" fill="#FFD500"/>
    <path d="M492.266 430.373C487.567 419.955 479.167 411.555 468.749 406.856C466.557 405.867 465.17 403.66 465.17 401.255V393.303C465.17 389.889 462.403 387.122 458.989 387.122H440.132C436.718 387.122 433.951 389.889 433.951 393.303V401.255C433.951 403.66 432.565 405.867 430.372 406.856C419.954 411.555 411.554 419.955 406.855 430.373C405.866 432.565 403.659 433.952 401.254 433.952H393.302C389.888 433.952 387.121 436.719 387.121 440.133V458.99C387.121 462.404 389.888 465.171 393.302 465.171H401.254C403.659 465.171 405.866 466.557 406.855 468.75C411.554 479.168 419.954 487.568 430.372 492.267C432.564 493.256 433.951 495.463 433.951 497.868V505.82C433.951 509.234 436.718 512.001 440.132 512.001H458.989C462.403 512.001 465.17 509.234 465.17 505.82V497.868C465.17 495.463 466.556 493.256 468.749 492.267C479.167 487.568 487.567 479.168 492.266 468.75C493.255 466.558 495.462 465.171 497.867 465.171H505.819C509.233 465.171 512 462.404 512 458.99V440.133C512 436.719 509.233 433.952 505.819 433.952H497.867C495.462 433.951 493.255 432.565 492.266 430.373V430.373ZM449.561 465.171C440.94 465.171 433.951 458.182 433.951 449.561C433.951 440.94 440.94 433.951 449.561 433.951C458.182 433.951 465.171 440.94 465.171 449.561C465.171 458.182 458.182 465.171 449.561 465.171Z" fill="#FFE55A"/>
    <path d="M492.279 430.408C491.29 428.22 490.137 426.122 488.84 424.125C485.907 458.198 457.337 484.943 422.504 484.943C421.27 484.943 420.045 484.904 418.828 484.837C422.277 487.845 426.163 490.363 430.385 492.27C432.573 493.258 433.952 495.465 433.952 497.866V505.819C433.952 509.233 436.719 512 440.133 512H458.99C462.404 512 465.171 509.233 465.171 505.819V497.867C465.171 495.462 466.557 493.255 468.75 492.266C479.168 487.567 487.568 479.167 492.267 468.749C493.256 466.557 495.463 465.17 497.868 465.17H505.82C509.234 465.17 512.001 462.403 512.001 458.989V440.132C512.001 436.718 509.234 433.951 505.82 433.951H497.867C495.475 433.951 493.264 432.587 492.279 430.408V430.408Z" fill="#FFD500"/>
    <path d="M105.144 430.373C100.445 419.955 92.045 411.555 81.627 406.856C79.435 405.867 78.048 403.66 78.048 401.255V393.303C78.048 389.889 75.281 387.122 71.867 387.122H53.01C49.596 387.122 46.829 389.889 46.829 393.303V401.255C46.829 403.66 45.443 405.867 43.25 406.856C32.832 411.555 24.432 419.955 19.733 430.373C18.744 432.565 16.537 433.952 14.132 433.952H6.181C2.767 433.952 0 436.719 0 440.133V458.99C0 462.404 2.767 465.171 6.181 465.171H14.133C16.538 465.171 18.745 466.557 19.734 468.75C24.433 479.168 32.833 487.568 43.251 492.267C45.443 493.256 46.83 495.463 46.83 497.868V505.82C46.83 509.234 49.597 512.001 53.011 512.001H71.868C75.282 512.001 78.049 509.234 78.049 505.82V497.868C78.049 495.463 79.435 493.256 81.628 492.267C92.046 487.568 100.446 479.168 105.145 468.75C106.134 466.558 108.341 465.171 110.746 465.171H118.698C122.112 465.171 124.879 462.404 124.879 458.99V440.133C124.879 436.719 122.112 433.952 118.698 433.952H110.746C108.34 433.951 106.133 432.565 105.144 430.373V430.373ZM62.439 465.171C53.818 465.171 46.829 458.182 46.829 449.561C46.829 440.94 53.818 433.951 62.439 433.951C71.06 433.951 78.049 440.94 78.049 449.561C78.049 458.182 71.06 465.171 62.439 465.171Z" fill="#FFE55A"/>
    <path d="M105.157 430.408C104.168 428.22 103.015 426.122 101.718 424.125C98.7851 458.198 70.2151 484.943 35.3821 484.943C34.1481 484.943 32.9231 484.904 31.7061 484.837C35.1551 487.845 39.0411 490.363 43.2631 492.27C45.4511 493.258 46.8301 495.465 46.8301 497.866V505.819C46.8301 509.233 49.5971 512 53.0111 512H71.868C75.282 512 78.0491 509.233 78.0491 505.819V497.867C78.0491 495.462 79.4351 493.255 81.6281 492.266C92.0461 487.567 100.446 479.167 105.145 468.749C106.134 466.557 108.341 465.17 110.746 465.17H118.698C122.112 465.17 124.879 462.403 124.879 458.989V440.132C124.879 436.718 122.112 433.951 118.698 433.951H110.745C108.353 433.951 106.142 432.587 105.157 430.408V430.408Z" fill="#FFD500"/>
    <path d="M151.362 157.431C154.931 156.723 157.584 153.488 157.58 149.849V124.878C157.58 120.61 154.121 117.152 149.854 117.152C145.587 117.152 142.128 120.611 142.128 124.878V131.2L119.936 109.008C116.918 105.992 112.027 105.992 109.008 109.008C105.991 112.026 105.991 116.917 109.008 119.936L131.2 142.128H124.878C120.61 142.128 117.152 145.587 117.152 149.854C117.152 154.121 120.611 157.58 124.878 157.58H149.854C150.358 157.58 150.868 157.529 151.362 157.431C151.231 157.457 151.496 157.404 151.362 157.431Z" fill="#665E66"/>
    <path d="M402.992 109.008C399.974 105.992 395.083 105.992 392.064 109.008L369.872 131.2V124.878C369.872 120.61 366.413 117.152 362.146 117.152C357.879 117.152 354.42 120.611 354.42 124.878V149.849C354.416 154.056 357.94 157.581 362.146 157.581H387.122C391.39 157.581 394.848 154.122 394.848 149.855C394.848 145.588 391.389 142.129 387.122 142.129H380.8L402.992 119.937C406.009 116.918 406.009 112.026 402.992 109.008C399.974 105.992 406.009 112.026 402.992 109.008V109.008Z" fill="#665E66"/>
    <path d="M157.542 359.302C157.159 355.4 153.763 352.339 149.854 352.339H124.878C120.61 352.339 117.152 355.798 117.152 360.065C117.152 364.332 120.611 367.791 124.878 367.791H131.201L109.009 389.982C105.991 393 105.991 397.891 109.008 400.909C110.517 402.418 112.494 403.173 114.472 403.173C116.449 403.173 118.427 402.418 119.935 400.91L142.128 378.717V385.039C142.128 389.307 145.587 392.765 149.854 392.765C154.121 392.765 157.58 389.306 157.58 385.039V360.067C157.581 359.812 157.567 359.557 157.542 359.302V359.302Z" fill="#665E66"/>
    <path d="M402.991 389.983L380.799 367.792H387.122C391.39 367.792 394.848 364.333 394.848 360.066C394.848 355.799 391.389 352.34 387.122 352.34H362.146C357.943 352.34 354.42 355.873 354.42 360.066V385.041C354.42 389.309 357.879 392.767 362.146 392.767C366.413 392.767 369.872 389.308 369.872 385.041V378.719L392.065 400.912C393.573 402.42 395.551 403.175 397.528 403.175C399.505 403.175 401.483 402.42 402.992 400.911C406.009 397.892 406.009 393.001 402.991 389.983Z" fill="#665E66"/>
</svg>