<svg width="415" height="513" viewBox="0 0 415 513" fill="none" xmlns="http://www.w3.org/2000/svg">
    <path d="M219.884 477.034C322.01 477.034 404.799 394.245 404.799 292.119C404.799 189.993 322.01 107.204 219.884 107.204C117.758 107.204 34.9689 189.993 34.9689 292.119C34.9689 394.245 117.758 477.034 219.884 477.034Z" fill="#AE95D0"/>
    <path d="M324.295 139.493C337.904 165.248 345.621 194.598 345.621 225.754C345.621 327.88 262.832 410.669 160.706 410.669C121.962 410.669 86.0078 398.745 56.2948 378.379C87.2948 437.046 148.915 477.033 219.884 477.033C322.01 477.033 404.799 394.244 404.799 292.118C404.799 228.736 372.904 172.811 324.295 139.493Z" fill="#FFE55A"/>
    <path d="M219.884 487.049C167.816 487.049 118.865 466.773 82.0469 429.955C45.2289 393.137 24.9539 344.186 24.9539 292.118C24.9539 240.05 45.2299 191.099 82.0469 154.281C118.864 117.463 167.815 97.1868 219.884 97.1868C271.953 97.1868 320.903 117.463 357.721 154.281C394.539 191.099 414.814 240.05 414.814 292.118C414.814 344.186 394.538 393.137 357.721 429.955C320.904 466.773 271.952 487.049 219.884 487.049ZM219.884 122.465C126.337 122.465 50.2309 198.571 50.2309 292.119C50.2309 385.667 126.337 461.773 219.884 461.773C313.431 461.773 389.537 385.666 389.537 292.119C389.537 198.572 313.431 122.465 219.884 122.465Z" fill="#796891"/>
    <path d="M357.72 154.282C355.594 152.156 353.423 150.091 351.217 148.076C384.097 184.059 402.104 230.349 402.104 279.41C402.104 331.478 381.828 380.429 345.011 417.247C308.194 454.065 259.242 474.341 207.174 474.341C158.113 474.341 111.824 456.333 75.8398 423.453C77.8548 425.658 79.9199 427.83 82.0459 429.956C118.863 466.774 167.814 487.05 219.882 487.05C271.95 487.05 320.901 466.774 357.718 429.956C394.536 393.139 414.811 344.187 414.811 292.119C414.811 240.051 394.537 191.099 357.72 154.282Z" fill="#574A68"/>
    <path d="M219.884 419.286C149.763 419.286 92.7158 362.239 92.7158 292.118C92.7158 221.997 149.762 164.951 219.884 164.951C290.006 164.951 347.052 221.998 347.052 292.119C347.052 362.24 290.005 419.286 219.884 419.286ZM219.884 210.472C174.864 210.472 138.237 247.098 138.237 292.118C138.237 337.138 174.863 373.764 219.884 373.764C264.905 373.764 301.531 337.138 301.531 292.118C301.531 247.098 264.904 210.472 219.884 210.472Z" fill="#E5ECF1"/>
    <path d="M219.884 322.964C236.919 322.964 250.729 309.154 250.729 292.119C250.729 275.084 236.919 261.274 219.884 261.274C202.849 261.274 189.039 275.084 189.039 292.119C189.039 309.154 202.849 322.964 219.884 322.964Z" fill="#E5ECF1"/>
    <path d="M342.648 258.926C327.719 341.345 258.165 404.734 172.839 410.263C187.398 416.081 203.272 419.286 219.883 419.286C290.004 419.286 347.051 362.239 347.051 292.118C347.052 280.638 345.514 269.512 342.648 258.926Z" fill="#D6E4EA"/>
    <path d="M219.967 79.8298L186.126 50.3879C181.208 46.1089 178.384 39.9099 178.384 33.3909V6.27485C178.384 0.902851 184.704 -1.97615 188.757 1.54985L219.967 28.7029V79.8298Z" fill="#804B9F"/>
    <path d="M219.967 79.8298L253.808 50.3879C258.726 46.1089 261.55 39.9099 261.55 33.3909V6.27485C261.55 0.902851 255.23 -1.97615 251.177 1.54985L219.967 28.7029V79.8298Z" fill="#804B9F"/>
    <path d="M251.177 1.55085L243.986 7.80786C246.496 8.91685 248.41 11.3719 248.41 14.5869V46.6909C248.41 50.2129 247.706 53.6529 246.396 56.8369L253.808 50.3879C258.726 46.1089 261.55 39.9099 261.55 33.3909V6.27486C261.549 0.903855 255.229 -1.97515 251.177 1.55085Z" fill="#574A68"/>
    <path d="M219.967 236.614C215.7 236.614 212.241 233.155 212.241 228.888V16.6398C212.241 12.3728 215.7 8.91385 219.967 8.91385C224.234 8.91385 227.693 12.3728 227.693 16.6398V228.888C227.693 233.155 224.234 236.614 219.967 236.614Z" fill="#574A68"/>
    <path d="M322.097 189.989L318.987 145.241C318.535 138.738 320.922 132.358 325.531 127.748L344.704 108.574C348.503 104.775 355.007 107.209 355.379 112.568L358.248 153.837L322.097 189.989Z" fill="#804B9F"/>
    <path d="M322.097 189.989L366.845 193.099C373.348 193.551 379.728 191.164 384.338 186.555L403.512 167.381C407.311 163.582 404.877 157.078 399.518 156.706L358.249 153.837L322.097 189.989Z" fill="#804B9F"/>
    <path d="M399.517 156.706L390.008 156.045C390.999 158.604 390.616 161.693 388.343 163.966L365.642 186.667C363.152 189.157 360.222 191.092 357.044 192.418L366.845 193.099C373.348 193.551 379.728 191.164 384.338 186.555L403.511 167.381C407.309 163.583 404.876 157.078 399.517 156.706Z" fill="#574A68"/>
    <path d="M219.926 299.886C217.949 299.886 215.971 299.131 214.462 297.623C211.445 294.606 211.445 289.714 214.462 286.697L361.315 139.844C364.333 136.827 369.224 136.827 372.242 139.844C375.259 142.861 375.259 147.753 372.242 150.77L225.389 297.623C223.88 299.132 221.902 299.886 219.926 299.886Z" fill="#574A68"/>
    <path d="M83.2588 428.743L86.3688 473.491C86.8208 479.994 84.4338 486.374 79.8248 490.984L60.6508 510.158C56.8518 513.957 50.3478 511.523 49.9758 506.164L47.1068 464.895L83.2588 428.743Z" fill="#804B9F"/>
    <path d="M86.3689 473.491L83.2589 428.743L68.4139 443.588L70.4919 473.491C70.9439 479.994 68.5569 486.374 63.9479 490.984L49.8969 505.035L49.9749 506.164C50.3479 511.523 56.8518 513.957 60.6498 510.158L79.8229 490.985C84.4339 486.374 86.8209 479.994 86.3689 473.491Z" fill="#574A68"/>
    <path d="M83.2589 428.743L38.5109 425.633C32.0079 425.181 25.6279 427.568 21.0179 432.177L1.84387 451.351C-1.95513 455.15 0.47887 461.654 5.83787 462.026L47.1069 464.895L83.2589 428.743Z" fill="#804B9F"/>
    <path d="M38.5768 481.151C36.5998 481.151 34.6218 480.396 33.1128 478.888C30.0958 475.871 30.0958 470.979 33.1128 467.962L179.966 321.109C182.984 318.092 187.875 318.092 190.893 321.109C193.91 324.126 193.91 329.018 190.893 332.035L44.0398 478.888C42.5308 480.397 40.5538 481.151 38.5768 481.151Z" fill="#574A68"/>
</svg>