<svg width="453" height="512" viewBox="0 0 453 512" fill="none" xmlns="http://www.w3.org/2000/svg">
    <path d="M338.875 208.56C338.875 145.419 287.467 94.286 224.223 94.732C163.595 95.16 113.526 143.669 111.293 204.258C110.064 237.602 123.185 267.893 144.967 289.453C160.854 305.178 170.067 326.417 170.067 348.77V354.981C170.067 385.344 194.681 409.959 225.045 409.959C255.408 409.959 280.023 385.345 280.023 354.981V348.765C280.023 326.626 288.867 305.374 304.684 289.885C325.781 269.225 338.875 240.423 338.875 208.56Z" fill="#FFE55A"/>
    <path d="M306.634 129.194C311.855 142.254 314.73 156.504 314.73 171.427C314.73 203.29 301.637 232.092 280.539 252.752C264.721 268.241 255.877 289.494 255.877 311.632V317.848C255.877 348.211 231.263 372.826 200.899 372.826C189.779 372.826 179.437 369.514 170.786 363.838C175.023 389.988 197.697 409.959 225.044 409.959C255.407 409.959 280.022 385.345 280.022 354.981V348.765C280.022 326.627 288.866 305.374 304.684 289.885C325.782 269.225 338.875 240.423 338.875 208.56C338.875 177.692 326.583 149.699 306.634 129.194Z" fill="#FFD500"/>
    <path d="M242.156 246.741C234.221 246.741 230.045 241.733 227.549 238.741C225.466 236.243 225.168 236.132 224.459 236.132C223.751 236.132 223.454 236.243 221.371 238.74C218.876 241.733 214.699 246.741 206.764 246.741C198.83 246.741 194.654 241.733 192.159 238.74C190.076 236.243 189.779 236.132 189.071 236.132C184.929 236.132 181.572 232.775 181.572 228.633C181.572 224.491 184.929 221.134 189.071 221.134C197.006 221.134 201.182 226.143 203.678 229.135C205.76 231.632 206.056 231.743 206.764 231.743C207.473 231.743 207.77 231.632 209.853 229.135C212.348 226.142 216.525 221.134 224.459 221.134C232.394 221.134 236.571 226.142 239.067 229.135C241.15 231.632 241.447 231.743 242.156 231.743C242.865 231.743 243.163 231.632 245.246 229.134C247.742 226.142 251.918 221.134 259.853 221.134C263.995 221.134 267.352 224.491 267.352 228.633C267.352 232.775 263.995 236.132 259.853 236.132C259.144 236.132 258.847 236.243 256.764 238.74C254.268 241.733 250.091 246.741 242.156 246.741Z" fill="#FFECCF"/>
    <path d="M225.163 512C221.021 512 217.664 508.643 217.664 504.501V480.555C217.664 476.413 221.021 473.056 225.163 473.056C229.305 473.056 232.662 476.413 232.662 480.555V504.501C232.662 508.643 229.305 512 225.163 512Z" fill="#574A68"/>
    <path d="M263.343 206.275C259.201 206.275 255.844 209.632 255.844 213.774V241.712C255.844 246.466 253.993 250.935 250.632 254.296L224.453 280.475L198.274 254.296C194.912 250.935 193.061 246.466 193.061 241.712V213.774C193.061 209.632 189.704 206.275 185.562 206.275C181.42 206.275 178.063 209.632 178.063 213.774V241.712C178.063 250.472 181.475 258.708 187.669 264.902L216.955 294.187V396.714C216.955 400.856 220.312 404.213 224.454 404.213C228.596 404.213 231.953 400.856 231.953 396.714V294.189L261.239 264.903C267.433 258.708 270.844 250.473 270.844 241.713V213.775C270.843 209.632 267.486 206.275 263.343 206.275Z" fill="#AE95D0"/>
    <path d="M226.012 482.212H224.076C205.607 482.212 190.635 467.24 190.635 448.771V402.454H259.454V448.771C259.453 467.24 244.481 482.212 226.012 482.212Z" fill="#AE95D0"/>
    <path d="M240.437 402.453V433.798C240.437 452.378 225.375 467.441 206.794 467.441H205.261C201.864 467.441 198.586 466.933 195.495 465.996C201.393 475.716 212.077 482.211 224.277 482.211H225.81C244.39 482.211 259.453 467.149 259.453 448.568V402.452H240.437V402.453Z" fill="#804B9F"/>
    <path d="M413.229 186.555C409.821 186.555 406.738 184.216 405.932 180.755C404.993 176.721 407.501 172.69 411.535 171.75L443.444 164.317C447.477 163.378 451.509 165.886 452.449 169.92C453.388 173.954 450.88 177.985 446.846 178.925L414.937 186.358C414.364 186.491 413.792 186.555 413.229 186.555Z" fill="#FFE55A"/>
    <path d="M351.747 427.998C349.211 427.998 346.737 426.711 345.326 424.383L328.35 396.361C326.205 392.819 327.336 388.207 330.879 386.061C334.421 383.919 339.032 385.047 341.179 388.59L358.155 416.612C360.3 420.154 359.169 424.766 355.626 426.912C354.411 427.648 353.071 427.998 351.747 427.998Z" fill="#FFE55A"/>
    <path d="M337.926 91.582C336.406 91.582 334.873 91.121 333.546 90.165C330.186 87.742 329.426 83.055 331.848 79.696L351.009 53.119C353.433 49.759 358.122 49.001 361.478 51.421C364.838 53.844 365.598 58.531 363.176 61.89L344.015 88.467C342.55 90.5 340.254 91.582 337.926 91.582Z" fill="#FFE55A"/>
    <path d="M432.734 315.784C431.824 315.784 430.899 315.617 430 315.266L399.495 303.314C395.639 301.802 393.738 297.452 395.248 293.595C396.76 289.739 401.107 287.84 404.967 289.348L435.472 301.3C439.328 302.812 441.229 307.162 439.719 311.019C438.56 313.976 435.73 315.784 432.734 315.784Z" fill="#FFE55A"/>
    <path d="M226.297 48.978C222.155 48.978 218.798 45.621 218.798 41.479V7.499C218.798 3.357 222.155 0 226.297 0C230.439 0 233.796 3.357 233.796 7.499V41.479C233.796 45.621 230.439 48.978 226.297 48.978Z" fill="#FFE55A"/>
    <path d="M39.417 186.555C38.854 186.555 38.281 186.491 37.709 186.358L5.8 178.925C1.766 177.985 -0.742001 173.954 0.196999 169.92C1.136 165.886 5.168 163.38 9.202 164.317L41.111 171.75C45.145 172.69 47.653 176.721 46.714 180.755C45.908 184.216 42.824 186.555 39.417 186.555Z" fill="#FFE55A"/>
    <path d="M100.899 427.998C99.575 427.998 98.235 427.647 97.02 426.912C93.477 424.766 92.346 420.154 94.491 416.612L111.467 388.59C113.613 385.046 118.226 383.918 121.767 386.061C125.31 388.207 126.441 392.819 124.296 396.361L107.32 424.383C105.91 426.711 103.435 427.998 100.899 427.998Z" fill="#FFE55A"/>
    <path d="M114.72 91.582C112.392 91.582 110.096 90.5 108.631 88.467L89.47 61.89C87.048 58.531 87.808 53.844 91.168 51.421C94.525 49 99.215 49.759 101.637 53.119L120.798 79.696C123.22 83.055 122.46 87.742 119.1 90.165C117.773 91.121 116.239 91.582 114.72 91.582Z" fill="#FFE55A"/>
    <path d="M19.912 315.784C16.916 315.784 14.086 313.977 12.927 311.019C11.416 307.162 13.318 302.812 17.174 301.3L47.679 289.348C51.533 287.838 55.886 289.739 57.398 293.595C58.909 297.452 57.007 301.802 53.151 303.314L22.646 315.266C21.748 315.617 20.822 315.784 19.912 315.784Z" fill="#FFE55A"/>
    <path d="M265.788 409.953H185.155C181.013 409.953 177.656 406.596 177.656 402.454C177.656 398.312 181.013 394.955 185.155 394.955H265.788C269.93 394.955 273.287 398.312 273.287 402.454C273.287 406.596 269.93 409.953 265.788 409.953Z" fill="#574A68"/>
    <path d="M265.788 439.579H185.155C181.013 439.579 177.656 436.222 177.656 432.08C177.656 427.938 181.013 424.581 185.155 424.581H265.788C269.93 424.581 273.287 427.938 273.287 432.08C273.287 436.222 269.93 439.579 265.788 439.579Z" fill="#574A68"/>
    <path d="M261.763 469.079H189.178C185.036 469.079 181.679 465.722 181.679 461.58C181.679 457.438 185.036 454.081 189.178 454.081H261.763C265.905 454.081 269.262 457.438 269.262 461.58C269.263 465.722 265.906 469.079 261.763 469.079Z" fill="#574A68"/>
</svg>