<svg width="512" height="512" viewBox="0 0 512 512" fill="none" xmlns="http://www.w3.org/2000/svg">
    <path d="M402.953 367.246C395.294 326.35 379.295 247.362 357.381 173.08C403.939 180.141 446.219 174.96 437.855 147.956C428.729 118.492 294.139 20.444 281.392 11.209C273.168 4.012 264.69 0 256 0C183.721 0 125.984 276.796 109.047 367.246C43.106 381.643 0 405.463 0 432.416C0 476.369 114.615 512 256 512C397.385 512 512 476.369 512 432.416C512 405.463 468.893 381.643 402.953 367.246Z" fill="#AE95D0"/>
    <path d="M256 493.419C124.726 493.419 16.549 462.7 1.746 423.125C0.606 426.173 0 429.272 0 432.415C0 476.369 114.615 512 256 512C397.385 512 512 476.369 512 432.416C512 429.273 511.395 426.174 510.254 423.126C495.45 462.7 387.274 493.419 256 493.419Z" fill="#804B9F"/>
    <path d="M399.1 347.172C378.028 363.633 321.918 375.407 256 375.407C190.082 375.407 133.971 363.633 112.9 347.172C108.698 368.565 105.897 384.366 104.68 391.408C104.226 392.751 103.985 394.111 103.985 395.486C103.985 419.044 172.045 438.141 256.001 438.141C339.957 438.141 408.017 419.044 408.017 395.486C408.017 394.11 407.775 392.75 407.322 391.408C406.103 384.366 403.302 368.565 399.1 347.172Z" fill="#FFE55A"/>
    <path d="M405.993 383.86C394.157 404.109 331.514 419.56 256 419.56C180.486 419.56 117.843 404.109 106.007 383.86C105.453 386.963 105.007 389.512 104.68 391.407C104.226 392.75 103.985 394.109 103.985 395.485C103.985 419.043 172.045 438.14 256.001 438.14C339.957 438.14 408.017 419.043 408.017 395.485C408.017 394.109 407.775 392.749 407.322 391.407C406.993 389.512 406.547 386.963 405.993 383.86Z" fill="#FFD500"/>
    <path d="M436.323 144.404C421.216 166.471 343.378 157.852 293.18 137.203C285.411 134.007 276.851 139.558 276.619 147.956C331.646 178.147 451.428 191.777 437.855 147.956C437.517 146.866 436.991 145.673 436.323 144.404Z" fill="#804B9F"/>
    <path d="M284.289 367.556C275.049 367.926 265.604 368.117 256 368.117C246.395 368.117 236.951 367.926 227.711 367.556C215.963 367.086 206.162 376.424 206.162 388.181V428.925C206.162 439.976 214.857 449.085 225.898 449.555C235.715 449.973 245.768 450.19 256.001 450.19C266.234 450.19 276.287 449.973 286.104 449.555C297.144 449.084 305.84 439.975 305.84 428.925V388.181C305.839 376.424 296.037 367.086 284.289 367.556ZM276.306 420.934C269.817 421.287 263.013 421.474 256 421.474C248.988 421.474 242.184 421.286 235.694 420.934V395.831C242.183 396.184 248.987 396.372 256 396.372C263.013 396.372 269.816 396.184 276.306 395.831V420.934Z" fill="#FFE55A"/>
    <path d="M286.103 430.974C276.286 431.392 266.233 431.609 256 431.609C245.767 431.609 235.714 431.392 225.897 430.974C214.857 430.504 206.161 421.394 206.161 410.344V428.925C206.161 439.976 214.856 449.085 225.897 449.555C235.714 449.973 245.767 450.19 256 450.19C266.233 450.19 276.286 449.973 286.103 449.555C297.143 449.084 305.839 439.975 305.839 428.925V410.344C305.839 421.395 297.143 430.504 286.103 430.974Z" fill="#FFD500"/>
</svg>