<svg width="450" height="512" viewBox="0 0 450 512" fill="none" xmlns="http://www.w3.org/2000/svg">
    <path d="M311.696 323.884L281.398 319.669C277.644 319.147 274.449 316.598 273.215 313.014C271.618 308.375 269.744 303.865 267.612 299.504C265.945 296.093 266.395 292.025 268.684 288.997L287.133 264.585C290.052 260.723 289.676 255.3 286.253 251.876L260.123 225.746C256.7 222.323 251.277 221.947 247.414 224.866L223.002 243.315C219.973 245.604 215.906 246.054 212.495 244.387C208.134 242.256 203.624 240.381 198.985 238.784C195.402 237.551 192.853 234.355 192.33 230.601L188.115 200.303C187.448 195.508 183.348 191.939 178.506 191.939H141.554C136.713 191.939 132.612 195.508 131.945 200.303L127.73 230.601C127.208 234.355 124.659 237.55 121.075 238.784C116.436 240.381 111.926 242.255 107.565 244.387C104.154 246.054 100.086 245.604 97.058 243.315L72.646 224.866C68.784 221.947 63.36 222.323 59.937 225.746L33.807 251.876C30.384 255.299 30.008 260.722 32.927 264.585L51.376 288.997C53.665 292.026 54.115 296.093 52.448 299.504C50.317 303.865 48.442 308.375 46.845 313.014C45.612 316.597 42.416 319.146 38.662 319.669L8.364 323.884C3.569 324.551 0 328.651 0 333.493V370.446C0 375.287 3.569 379.387 8.364 380.055L38.662 384.27C42.416 384.792 45.611 387.341 46.845 390.925C48.442 395.564 50.316 400.074 52.448 404.435C54.115 407.846 53.665 411.914 51.376 414.942L32.927 439.354C30.008 443.216 30.384 448.639 33.807 452.063L59.937 478.193C63.36 481.616 68.783 481.992 72.646 479.073L97.058 460.624C100.087 458.335 104.154 457.885 107.565 459.552C111.926 461.684 116.436 463.558 121.075 465.155C124.658 466.388 127.207 469.584 127.73 473.338L131.945 503.636C132.612 508.431 136.712 512 141.554 512H178.508C183.349 512 187.449 508.431 188.117 503.636L192.332 473.338C192.854 469.584 195.403 466.389 198.987 465.155C203.626 463.558 208.136 461.684 212.497 459.552C215.908 457.885 219.976 458.335 223.004 460.624L247.416 479.073C251.278 481.992 256.702 481.616 260.125 478.193L286.255 452.063C289.678 448.64 290.054 443.217 287.135 439.354L268.686 414.942C266.397 411.913 265.947 407.846 267.614 404.435C269.745 400.074 271.62 395.564 273.217 390.925C274.45 387.342 277.646 384.793 281.4 384.27L311.698 380.055C316.493 379.388 320.062 375.288 320.062 370.446V333.493C320.061 328.652 316.491 324.552 311.696 323.884ZM160.03 419.982C122.468 419.982 92.018 389.532 92.018 351.97C92.018 314.408 122.468 283.958 160.03 283.958C197.592 283.958 228.042 314.408 228.042 351.97C228.042 389.532 197.592 419.982 160.03 419.982Z" fill="#AE95D0"/>
    <path d="M311.696 323.884L285.349 320.218V352.409C285.349 357.25 281.78 361.35 276.985 362.018L246.687 366.233C242.933 366.755 239.738 369.304 238.504 372.887C236.907 377.526 235.033 382.036 232.901 386.397C231.234 389.808 231.684 393.876 233.973 396.904L252.422 421.316C255.341 425.178 254.965 430.601 251.542 434.025L225.412 460.155C224.961 460.606 224.473 461.001 223.96 461.346L247.415 479.071C251.277 481.99 256.701 481.614 260.124 478.191L286.254 452.061C289.677 448.638 290.053 443.215 287.134 439.352L268.685 414.94C266.396 411.911 265.946 407.844 267.613 404.433C269.745 400.072 271.619 395.562 273.216 390.923C274.449 387.34 277.645 384.791 281.399 384.268L311.697 380.053C316.492 379.386 320.061 375.286 320.061 370.444V333.491C320.061 328.652 316.491 324.552 311.696 323.884Z" fill="#804B9F"/>
    <path d="M362.23 122.391L345.148 112.263C343.785 111.455 343.005 109.936 343.152 108.358C343.374 105.983 343.497 103.579 343.497 101.146C343.497 98.9314 343.396 96.7414 343.212 94.5734C343.079 93.0034 343.882 91.5024 345.244 90.7104L362.406 80.7304C365.122 79.1504 366.259 75.8104 365.068 72.9024L355.984 50.7034C354.794 47.7954 351.642 46.2094 348.597 46.9874L329.354 51.9054C327.833 52.2944 326.21 51.7954 325.206 50.5894C322.25 47.0374 318.99 43.7494 315.463 40.7634C314.265 39.7494 313.78 38.1224 314.182 36.6044L319.263 17.4034C320.067 14.3654 318.508 11.2004 315.61 9.98537L293.489 0.712366C290.591 -0.502634 287.241 0.605366 285.638 3.30837L275.51 20.3904C274.702 21.7534 273.183 22.5334 271.605 22.3864C269.23 22.1644 266.826 22.0414 264.393 22.0414C262.178 22.0414 259.988 22.1424 257.82 22.3264C256.25 22.4594 254.749 21.6564 253.957 20.2944L243.977 3.13237C242.397 0.416366 239.057 -0.720634 236.148 0.470366L213.949 9.55537C211.041 10.7454 209.455 13.8974 210.233 16.9424L215.151 36.1854C215.54 37.7064 215.041 39.3294 213.835 40.3334C210.283 43.2894 206.995 46.5494 204.009 50.0764C202.995 51.2744 201.368 51.7594 199.85 51.3574L180.649 46.2764C177.611 45.4724 174.446 47.0314 173.231 49.9294L163.958 72.0504C162.743 74.9484 163.851 78.2984 166.554 79.9014L183.636 90.0294C184.999 90.8374 185.779 92.3564 185.632 93.9344C185.41 96.3094 185.287 98.7134 185.287 101.146C185.287 103.361 185.388 105.551 185.572 107.719C185.705 109.289 184.902 110.79 183.54 111.582L166.378 121.562C163.662 123.142 162.525 126.482 163.716 129.39L172.801 151.589C173.991 154.497 177.143 156.083 180.188 155.305L199.431 150.387C200.952 149.998 202.575 150.497 203.579 151.703C206.535 155.255 209.795 158.543 213.322 161.529C214.52 162.543 215.005 164.17 214.603 165.688L209.522 184.889C208.718 187.927 210.277 191.092 213.175 192.307L235.296 201.58C238.194 202.795 241.544 201.687 243.147 198.984L253.275 181.902C254.083 180.539 255.602 179.759 257.18 179.906C259.555 180.128 261.959 180.251 264.392 180.251C266.607 180.251 268.797 180.15 270.965 179.966C272.535 179.833 274.036 180.636 274.828 181.998L284.808 199.16C286.388 201.876 289.728 203.013 292.636 201.822L314.835 192.737C317.743 191.547 319.329 188.395 318.551 185.35L313.633 166.107C313.244 164.586 313.743 162.963 314.949 161.959C318.501 159.003 321.789 155.743 324.775 152.216C325.789 151.018 327.416 150.533 328.934 150.935L348.135 156.016C351.173 156.82 354.338 155.261 355.553 152.363L364.826 130.242C366.041 127.344 364.933 123.994 362.23 122.391ZM264.394 130.843C247.992 130.843 234.696 117.547 234.696 101.145C234.696 84.7434 247.992 71.4474 264.394 71.4474C280.796 71.4474 294.092 84.7434 294.092 101.145C294.092 117.547 280.795 130.843 264.394 130.843Z" fill="#FFE55A"/>
    <path d="M362.23 122.391L347.754 113.808L340.42 131.304C339.205 134.202 336.04 135.761 333.002 134.957L313.801 129.876C312.284 129.474 310.657 129.959 309.642 131.157C306.656 134.683 303.369 137.944 299.816 140.9C298.61 141.904 298.111 143.527 298.5 145.048L303.418 164.291C304.196 167.336 302.611 170.488 299.702 171.678L277.503 180.763C276.417 181.207 275.271 181.326 274.178 181.161C274.425 181.409 274.646 181.686 274.827 181.997L284.807 199.159C286.387 201.875 289.727 203.012 292.635 201.821L314.834 192.736C317.742 191.546 319.328 188.394 318.55 185.349L313.632 166.106C313.243 164.585 313.742 162.962 314.948 161.958C318.5 159.002 321.788 155.742 324.774 152.215C325.788 151.017 327.415 150.532 328.933 150.934L348.134 156.015C351.172 156.819 354.337 155.26 355.552 152.362L364.825 130.241C366.041 127.344 364.933 123.993 362.23 122.391Z" fill="#FFD500"/>
    <path d="M242.304 1.27336C241.468 0.647357 240.499 0.228357 239.474 0.0723572C240.22 0.822357 241.232 1.26036 242.304 1.27336Z" fill="#BFBFBF"/>
    <path d="M447.103 274.205L436.919 267.998C435.376 267.058 434.511 265.326 434.67 263.526C434.807 261.971 434.88 260.397 434.88 258.806C434.88 257.819 434.852 256.838 434.799 255.864C434.701 254.063 435.624 252.365 437.194 251.477L447.572 245.61C449.45 244.548 450.257 242.265 449.465 240.259L443.414 224.946C442.621 222.94 440.471 221.825 438.375 222.334L426.786 225.146C425.035 225.571 423.202 224.962 422.042 223.584C420.393 221.625 418.609 219.785 416.704 218.075C415.362 216.87 414.812 215.016 415.295 213.279L418.487 201.783C419.064 199.705 418.021 197.519 416.041 196.661L400.934 190.112C398.955 189.254 396.646 189.986 395.524 191.828L389.317 202.012C388.377 203.555 386.645 204.42 384.845 204.261C383.29 204.124 381.716 204.051 380.125 204.051C379.138 204.051 378.157 204.079 377.183 204.131C375.382 204.229 373.684 203.306 372.796 201.736L366.929 191.358C365.867 189.48 363.584 188.673 361.578 189.465L346.265 195.516C344.259 196.309 343.144 198.459 343.653 200.555L346.465 212.144C346.89 213.895 346.281 215.728 344.903 216.888C342.944 218.537 341.104 220.321 339.394 222.226C338.189 223.568 336.335 224.118 334.598 223.635L323.102 220.443C321.024 219.866 318.838 220.909 317.98 222.889L311.431 237.996C310.573 239.975 311.305 242.284 313.147 243.406L323.331 249.613C324.874 250.553 325.739 252.285 325.58 254.085C325.443 255.64 325.37 257.214 325.37 258.805C325.37 259.792 325.397 260.773 325.45 261.747C325.548 263.548 324.625 265.246 323.055 266.134L312.677 272.001C310.799 273.063 309.992 275.346 310.784 277.352L316.835 292.665C317.628 294.671 319.778 295.786 321.874 295.277L333.463 292.465C335.214 292.04 337.047 292.649 338.207 294.027C339.856 295.986 341.64 297.826 343.545 299.536C344.887 300.741 345.437 302.595 344.954 304.332L341.762 315.828C341.185 317.906 342.228 320.092 344.208 320.95L359.315 327.499C361.294 328.357 363.603 327.625 364.725 325.783L370.932 315.599C371.872 314.056 373.604 313.191 375.404 313.35C376.959 313.487 378.533 313.56 380.124 313.56C381.111 313.56 382.092 313.533 383.066 313.479C384.867 313.381 386.565 314.304 387.453 315.874L393.32 326.252C394.382 328.13 396.665 328.937 398.671 328.145L413.984 322.094C415.99 321.301 417.105 319.151 416.596 317.055L413.784 305.466C413.359 303.715 413.968 301.882 415.346 300.722C417.305 299.073 419.145 297.289 420.855 295.384C422.06 294.042 423.914 293.492 425.651 293.975L437.147 297.167C439.225 297.744 441.411 296.701 442.269 294.721L448.818 279.614C449.678 277.637 448.945 275.328 447.103 274.205ZM380.125 293.668C360.871 293.668 345.263 278.06 345.263 258.806C345.263 239.552 360.871 223.944 380.125 223.944C399.379 223.944 414.987 239.552 414.987 258.806C414.987 278.06 399.378 293.668 380.125 293.668Z" fill="#AE95D0"/>
    <path d="M447.103 274.205L439.081 269.316L432.572 284.329C431.714 286.308 429.528 287.352 427.45 286.775L415.954 283.583C414.217 283.101 412.363 283.65 411.158 284.992C409.448 286.896 407.608 288.681 405.649 290.33C404.271 291.49 403.662 293.324 404.087 295.074L406.899 306.663C407.408 308.759 406.293 310.91 404.287 311.702L388.974 317.753C388.845 317.804 388.712 317.83 388.58 317.868L393.32 326.253C394.382 328.131 396.665 328.938 398.671 328.146L413.984 322.095C415.99 321.302 417.105 319.152 416.596 317.056L413.784 305.467C413.359 303.716 413.968 301.883 415.346 300.723C417.305 299.074 419.145 297.29 420.855 295.385C422.06 294.043 423.914 293.493 425.651 293.976L437.147 297.168C439.225 297.745 441.411 296.702 442.269 294.722L448.818 279.615C449.678 277.637 448.945 275.328 447.103 274.205Z" fill="#804B9F"/>
</svg>