<svg width="641" height="336" viewBox="0 0 641 336" fill="none" xmlns="http://www.w3.org/2000/svg">
    <path d="M641 0H0V331H641V0Z" fill="#595750"/>
    <path d="M633 32H0V331H633V32Z" fill="#370025"/>
    <path d="M18.5 27C24.299 27 29 22.299 29 16.5C29 10.701 24.299 6 18.5 6C12.701 6 8 10.701 8 16.5C8 22.299 12.701 27 18.5 27Z" fill="#E96B40"/>
    <path d="M67.5 27C73.299 27 78 22.299 78 16.5C78 10.701 73.299 6 67.5 6C61.701 6 57 10.701 57 16.5C57 22.299 61.701 27 67.5 27Z" fill="#6E6D67"/>
    <path d="M42.5 27C48.299 27 53 22.299 53 16.5C53 10.701 48.299 6 42.5 6C36.701 6 32 10.701 32 16.5C32 22.299 36.701 27 42.5 27Z" fill="#6E6D67"/>
    <path d="M399 303H11V320H399V303Z" fill="#FFE55A"/>
    <path d="M376 219H11V236H376V219Z" fill="white"/>
    <path d="M482 247H11V264H482V247Z" fill="white"/>
    <path d="M276 275H11V292H276V275Z" fill="white"/>
    <path d="M19.1769 84.63C17.3762 84.482 15.9086 84.2107 14.7739 83.816C13.6639 83.3967 12.8376 83.0513 12.2949 82.78L13.8859 78.525C14.7492 78.9443 15.7729 79.3267 16.9569 79.672C18.1656 80.0173 19.4359 80.19 20.7679 80.19C22.2726 80.19 23.2962 79.9927 23.8389 79.598C24.4062 79.1787 24.6899 78.599 24.6899 77.859C24.6899 77.3903 24.5789 76.9957 24.3569 76.675C24.1349 76.3297 23.8142 76.0213 23.3949 75.75C22.9756 75.4787 22.4452 75.2197 21.8039 74.973C21.1626 74.7017 20.4226 74.418 19.5839 74.122C18.7699 73.826 17.9682 73.5053 17.1789 73.16C16.4142 72.79 15.7112 72.346 15.0699 71.828C14.4532 71.31 13.9476 70.681 13.5529 69.941C13.1829 69.1763 12.9979 68.2637 12.9979 67.203C12.9979 66.389 13.1089 65.612 13.3309 64.872C13.5776 64.1073 13.9476 63.4167 14.4409 62.8C14.9342 62.1833 15.5756 61.6653 16.3649 61.246C17.1542 60.802 18.0916 60.4813 19.1769 60.284V56.288H23.8389V60.136C25.1216 60.2593 26.2192 60.4443 27.1319 60.691C28.0692 60.9377 28.8092 61.1843 29.3519 61.431L28.2049 65.871C27.3909 65.5257 26.4412 65.2297 25.3559 64.983C24.2952 64.7363 23.1729 64.613 21.9889 64.613C20.8049 64.613 19.9539 64.8103 19.4359 65.205C18.9179 65.5997 18.6589 66.1177 18.6589 66.759C18.6589 67.1537 18.7329 67.499 18.8809 67.795C19.0536 68.0663 19.3126 68.313 19.6579 68.535C20.0032 68.757 20.4226 68.979 20.9159 69.201C21.4339 69.3983 22.0506 69.6203 22.7659 69.867C23.8512 70.2617 24.8502 70.6933 25.7629 71.162C26.7002 71.6307 27.5019 72.1733 28.1679 72.79C28.8586 73.382 29.3889 74.085 29.7589 74.899C30.1536 75.713 30.3509 76.6627 30.3509 77.748C30.3509 78.488 30.2399 79.228 30.0179 79.968C29.7959 80.6833 29.4259 81.3493 28.9079 81.966C28.3899 82.5827 27.7116 83.113 26.8729 83.557C26.0589 84.001 25.0476 84.3217 23.8389 84.519V89.033H19.1769V84.63ZM43.5079 66.204C44.4452 65.9327 45.6539 65.686 47.1339 65.464C48.6139 65.2173 50.1679 65.094 51.7959 65.094C53.4485 65.094 54.8175 65.316 55.9029 65.76C57.0129 66.1793 57.8885 66.7837 58.5299 67.573C59.1712 68.3623 59.6275 69.2997 59.8989 70.385C60.1702 71.4703 60.3059 72.679 60.3059 74.011V85H54.7929V74.677C54.7929 72.901 54.5585 71.643 54.0899 70.903C53.6212 70.163 52.7455 69.793 51.4629 69.793C51.0682 69.793 50.6489 69.8177 50.2049 69.867C49.7609 69.8917 49.3662 69.9287 49.0209 69.978V85H43.5079V66.204ZM77.765 75.417C77.765 73.715 77.3826 72.3583 76.618 71.347C75.8533 70.311 74.7186 69.793 73.214 69.793C72.7206 69.793 72.2643 69.8177 71.845 69.867C71.4256 69.8917 71.0803 69.9287 70.809 69.978V79.931C71.1543 80.153 71.5983 80.338 72.141 80.486C72.7083 80.634 73.2756 80.708 73.843 80.708C76.4576 80.708 77.765 78.9443 77.765 75.417ZM83.389 75.269C83.389 76.7737 83.204 78.1427 82.834 79.376C82.464 80.6093 81.9213 81.67 81.206 82.558C80.4906 83.446 79.6026 84.1367 78.542 84.63C77.4813 85.1233 76.2603 85.37 74.879 85.37C74.1143 85.37 73.399 85.296 72.733 85.148C72.067 85 71.4256 84.7903 70.809 84.519V91.845H65.296V66.204C65.7893 66.056 66.3566 65.9203 66.998 65.797C67.6393 65.649 68.3053 65.5257 68.996 65.427C69.7113 65.3283 70.4266 65.2543 71.142 65.205C71.882 65.131 72.585 65.094 73.251 65.094C74.8543 65.094 76.285 65.3407 77.543 65.834C78.801 66.3027 79.8616 66.981 80.725 67.869C81.5883 68.7323 82.242 69.793 82.686 71.051C83.1546 72.309 83.389 73.715 83.389 75.269ZM98.319 74.677C98.319 72.901 98.0847 71.643 97.616 70.903C97.172 70.163 96.395 69.793 95.285 69.793C94.9397 69.793 94.582 69.8177 94.212 69.867C93.842 69.8917 93.4844 69.9287 93.139 69.978V85H87.626V66.204C88.0947 66.0807 88.6374 65.9573 89.254 65.834C89.8954 65.686 90.5614 65.5627 91.252 65.464C91.9674 65.3407 92.695 65.2543 93.435 65.205C94.175 65.131 94.9027 65.094 95.618 65.094C97.024 65.094 98.1587 65.279 99.022 65.649C99.91 65.9943 100.638 66.4137 101.205 66.907C101.994 66.3397 102.895 65.8957 103.906 65.575C104.942 65.2543 105.892 65.094 106.755 65.094C108.309 65.094 109.579 65.316 110.566 65.76C111.577 66.1793 112.379 66.7837 112.971 67.573C113.563 68.3623 113.97 69.2997 114.192 70.385C114.414 71.4703 114.525 72.679 114.525 74.011V85H109.012V74.677C109.012 72.901 108.778 71.643 108.309 70.903C107.865 70.163 107.088 69.793 105.978 69.793C105.682 69.793 105.263 69.867 104.72 70.015C104.202 70.163 103.77 70.348 103.425 70.57C103.598 71.1373 103.709 71.7417 103.758 72.383C103.807 72.9997 103.832 73.6657 103.832 74.381V85H98.319V74.677ZM133.933 85H128.42V65.538H133.933V85ZM134.451 59.914C134.451 60.9253 134.118 61.727 133.452 62.319C132.811 62.8863 132.046 63.17 131.158 63.17C130.27 63.17 129.493 62.8863 128.827 62.319C128.186 61.727 127.865 60.9253 127.865 59.914C127.865 58.9027 128.186 58.1133 128.827 57.546C129.493 56.954 130.27 56.658 131.158 56.658C132.046 56.658 132.811 56.954 133.452 57.546C134.118 58.1133 134.451 58.9027 134.451 59.914ZM139.115 66.204C140.053 65.9327 141.261 65.686 142.741 65.464C144.221 65.2173 145.775 65.094 147.403 65.094C149.056 65.094 150.425 65.316 151.51 65.76C152.62 66.1793 153.496 66.7837 154.137 67.573C154.779 68.3623 155.235 69.2997 155.506 70.385C155.778 71.4703 155.913 72.679 155.913 74.011V85H150.4V74.677C150.4 72.901 150.166 71.643 149.697 70.903C149.229 70.163 148.353 69.793 147.07 69.793C146.676 69.793 146.256 69.8177 145.812 69.867C145.368 69.8917 144.974 69.9287 144.628 69.978V85H139.115V66.204ZM166.49 81.041C167.502 81.041 168.217 80.9423 168.636 80.745C169.056 80.5477 169.265 80.1653 169.265 79.598C169.265 79.154 168.994 78.7717 168.451 78.451C167.909 78.1057 167.082 77.7233 165.972 77.304C165.109 76.9833 164.32 76.6503 163.604 76.305C162.914 75.9597 162.322 75.5527 161.828 75.084C161.335 74.5907 160.953 74.011 160.681 73.345C160.41 72.679 160.274 71.8773 160.274 70.94C160.274 69.1147 160.953 67.6717 162.309 66.611C163.666 65.5503 165.528 65.02 167.896 65.02C169.08 65.02 170.215 65.131 171.3 65.353C172.386 65.5503 173.249 65.7723 173.89 66.019L172.928 70.311C172.287 70.089 171.584 69.8917 170.819 69.719C170.079 69.5463 169.241 69.46 168.303 69.46C166.577 69.46 165.713 69.941 165.713 70.903C165.713 71.125 165.75 71.3223 165.824 71.495C165.898 71.6677 166.046 71.8403 166.268 72.013C166.49 72.161 166.786 72.3337 167.156 72.531C167.551 72.7037 168.044 72.901 168.636 73.123C169.845 73.567 170.844 74.011 171.633 74.455C172.423 74.8743 173.039 75.343 173.483 75.861C173.952 76.3543 174.273 76.9093 174.445 77.526C174.643 78.1427 174.741 78.858 174.741 79.672C174.741 81.596 174.014 83.0513 172.558 84.038C171.128 85.0247 169.093 85.518 166.453 85.518C164.727 85.518 163.284 85.37 162.124 85.074C160.99 84.778 160.2 84.5313 159.756 84.334L160.681 79.857C161.619 80.227 162.581 80.523 163.567 80.745C164.554 80.9423 165.528 81.041 166.49 81.041ZM178.676 60.691L184.189 59.803V65.538H190.812V70.126H184.189V76.971C184.189 78.1303 184.387 79.0553 184.781 79.746C185.201 80.4367 186.027 80.782 187.26 80.782C187.852 80.782 188.457 80.7327 189.073 80.634C189.715 80.5107 190.294 80.3503 190.812 80.153L191.589 84.445C190.923 84.7163 190.183 84.9507 189.369 85.148C188.555 85.3453 187.556 85.444 186.372 85.444C184.868 85.444 183.622 85.2467 182.635 84.852C181.649 84.4327 180.859 83.8653 180.267 83.15C179.675 82.41 179.256 81.522 179.009 80.486C178.787 79.45 178.676 78.303 178.676 77.045V60.691ZM202.016 81.152C202.559 81.152 203.077 81.1397 203.57 81.115C204.064 81.0903 204.458 81.0533 204.754 81.004V76.823C204.532 76.7737 204.199 76.7243 203.755 76.675C203.311 76.6257 202.904 76.601 202.534 76.601C202.016 76.601 201.523 76.638 201.054 76.712C200.61 76.7613 200.216 76.8723 199.87 77.045C199.525 77.2177 199.254 77.452 199.056 77.748C198.859 78.044 198.76 78.414 198.76 78.858C198.76 79.7213 199.044 80.3257 199.611 80.671C200.203 80.9917 201.005 81.152 202.016 81.152ZM201.572 65.02C203.2 65.02 204.557 65.205 205.642 65.575C206.728 65.945 207.591 66.4753 208.232 67.166C208.898 67.8567 209.367 68.6953 209.638 69.682C209.91 70.6687 210.045 71.7663 210.045 72.975V84.445C209.256 84.6177 208.158 84.815 206.752 85.037C205.346 85.2837 203.644 85.407 201.646 85.407C200.388 85.407 199.241 85.296 198.205 85.074C197.194 84.852 196.318 84.4943 195.578 84.001C194.838 83.483 194.271 82.817 193.876 82.003C193.482 81.189 193.284 80.19 193.284 79.006C193.284 77.8713 193.506 76.9093 193.95 76.12C194.419 75.3307 195.036 74.7017 195.8 74.233C196.565 73.7643 197.441 73.4313 198.427 73.234C199.414 73.012 200.438 72.901 201.498 72.901C202.214 72.901 202.843 72.938 203.385 73.012C203.953 73.0613 204.409 73.1353 204.754 73.234V72.716C204.754 71.7787 204.471 71.0263 203.903 70.459C203.336 69.8917 202.349 69.608 200.943 69.608C200.006 69.608 199.081 69.682 198.168 69.83C197.256 69.9533 196.466 70.1383 195.8 70.385L195.097 65.945C195.418 65.8463 195.813 65.7477 196.281 65.649C196.775 65.5257 197.305 65.427 197.872 65.353C198.44 65.2543 199.032 65.1803 199.648 65.131C200.29 65.057 200.931 65.02 201.572 65.02ZM222.8 85.37C221.197 85.3453 219.89 85.1727 218.878 84.852C217.892 84.5313 217.102 84.0873 216.51 83.52C215.943 82.928 215.548 82.225 215.326 81.411C215.129 80.5723 215.03 79.635 215.03 78.599V57.176L220.543 56.288V77.489C220.543 77.9823 220.58 78.4263 220.654 78.821C220.728 79.2157 220.864 79.5487 221.061 79.82C221.283 80.0913 221.592 80.3133 221.986 80.486C222.381 80.6587 222.911 80.7697 223.577 80.819L222.8 85.37ZM234.507 85.37C232.904 85.3453 231.597 85.1727 230.585 84.852C229.599 84.5313 228.809 84.0873 228.217 83.52C227.65 82.928 227.255 82.225 227.033 81.411C226.836 80.5723 226.737 79.635 226.737 78.599V57.176L232.25 56.288V77.489C232.25 77.9823 232.287 78.4263 232.361 78.821C232.435 79.2157 232.571 79.5487 232.768 79.82C232.99 80.0913 233.299 80.3133 233.693 80.486C234.088 80.6587 234.618 80.7697 235.284 80.819L234.507 85.37ZM252.92 81.041C253.931 81.041 254.647 80.9423 255.066 80.745C255.485 80.5477 255.695 80.1653 255.695 79.598C255.695 79.154 255.424 78.7717 254.881 78.451C254.338 78.1057 253.512 77.7233 252.402 77.304C251.539 76.9833 250.749 76.6503 250.034 76.305C249.343 75.9597 248.751 75.5527 248.258 75.084C247.765 74.5907 247.382 74.011 247.111 73.345C246.84 72.679 246.704 71.8773 246.704 70.94C246.704 69.1147 247.382 67.6717 248.739 66.611C250.096 65.5503 251.958 65.02 254.326 65.02C255.51 65.02 256.645 65.131 257.73 65.353C258.815 65.5503 259.679 65.7723 260.32 66.019L259.358 70.311C258.717 70.089 258.014 69.8917 257.249 69.719C256.509 69.5463 255.67 69.46 254.733 69.46C253.006 69.46 252.143 69.941 252.143 70.903C252.143 71.125 252.18 71.3223 252.254 71.495C252.328 71.6677 252.476 71.8403 252.698 72.013C252.92 72.161 253.216 72.3337 253.586 72.531C253.981 72.7037 254.474 72.901 255.066 73.123C256.275 73.567 257.274 74.011 258.063 74.455C258.852 74.8743 259.469 75.343 259.913 75.861C260.382 76.3543 260.702 76.9093 260.875 77.526C261.072 78.1427 261.171 78.858 261.171 79.672C261.171 81.596 260.443 83.0513 258.988 84.038C257.557 85.0247 255.522 85.518 252.883 85.518C251.156 85.518 249.713 85.37 248.554 85.074C247.419 84.778 246.63 84.5313 246.186 84.334L247.111 79.857C248.048 80.227 249.01 80.523 249.997 80.745C250.984 80.9423 251.958 81.041 252.92 81.041ZM265.106 60.691L270.619 59.803V65.538H277.242V70.126H270.619V76.971C270.619 78.1303 270.817 79.0553 271.211 79.746C271.631 80.4367 272.457 80.782 273.69 80.782C274.282 80.782 274.887 80.7327 275.503 80.634C276.145 80.5107 276.724 80.3503 277.242 80.153L278.019 84.445C277.353 84.7163 276.613 84.9507 275.799 85.148C274.985 85.3453 273.986 85.444 272.802 85.444C271.298 85.444 270.052 85.2467 269.065 84.852C268.079 84.4327 267.289 83.8653 266.697 83.15C266.105 82.41 265.686 81.522 265.439 80.486C265.217 79.45 265.106 78.303 265.106 77.045V60.691ZM299.213 75.232C299.213 76.7613 298.991 78.1673 298.547 79.45C298.103 80.708 297.462 81.7933 296.623 82.706C295.784 83.594 294.773 84.2847 293.589 84.778C292.43 85.2713 291.122 85.518 289.667 85.518C288.236 85.518 286.929 85.2713 285.745 84.778C284.586 84.2847 283.587 83.594 282.748 82.706C281.909 81.7933 281.256 80.708 280.787 79.45C280.318 78.1673 280.084 76.7613 280.084 75.232C280.084 73.7027 280.318 72.309 280.787 71.051C281.28 69.793 281.946 68.72 282.785 67.832C283.648 66.944 284.66 66.2533 285.819 65.76C287.003 65.2667 288.286 65.02 289.667 65.02C291.073 65.02 292.356 65.2667 293.515 65.76C294.699 66.2533 295.71 66.944 296.549 67.832C297.388 68.72 298.041 69.793 298.51 71.051C298.979 72.309 299.213 73.7027 299.213 75.232ZM293.589 75.232C293.589 73.53 293.244 72.198 292.553 71.236C291.887 70.2493 290.925 69.756 289.667 69.756C288.409 69.756 287.435 70.2493 286.744 71.236C286.053 72.198 285.708 73.53 285.708 75.232C285.708 76.934 286.053 78.2907 286.744 79.302C287.435 80.2887 288.409 80.782 289.667 80.782C290.925 80.782 291.887 80.2887 292.553 79.302C293.244 78.2907 293.589 76.934 293.589 75.232ZM315.213 70.422C314.719 70.2987 314.14 70.1753 313.474 70.052C312.808 69.904 312.092 69.83 311.328 69.83C310.982 69.83 310.563 69.867 310.07 69.941C309.601 69.9903 309.243 70.052 308.997 70.126V85H303.484V66.574C304.47 66.2287 305.63 65.908 306.962 65.612C308.318 65.2913 309.823 65.131 311.476 65.131C311.772 65.131 312.129 65.1557 312.549 65.205C312.968 65.2297 313.387 65.279 313.807 65.353C314.226 65.4023 314.645 65.4763 315.065 65.575C315.484 65.649 315.842 65.7477 316.138 65.871L315.213 70.422ZM326.169 81.152C326.711 81.152 327.229 81.1397 327.723 81.115C328.216 81.0903 328.611 81.0533 328.907 81.004V76.823C328.685 76.7737 328.352 76.7243 327.908 76.675C327.464 76.6257 327.057 76.601 326.687 76.601C326.169 76.601 325.675 76.638 325.207 76.712C324.763 76.7613 324.368 76.8723 324.023 77.045C323.677 77.2177 323.406 77.452 323.209 77.748C323.011 78.044 322.913 78.414 322.913 78.858C322.913 79.7213 323.196 80.3257 323.764 80.671C324.356 80.9917 325.157 81.152 326.169 81.152ZM325.725 65.02C327.353 65.02 328.709 65.205 329.795 65.575C330.88 65.945 331.743 66.4753 332.385 67.166C333.051 67.8567 333.519 68.6953 333.791 69.682C334.062 70.6687 334.198 71.7663 334.198 72.975V84.445C333.408 84.6177 332.311 84.815 330.905 85.037C329.499 85.2837 327.797 85.407 325.799 85.407C324.541 85.407 323.394 85.296 322.358 85.074C321.346 84.852 320.471 84.4943 319.731 84.001C318.991 83.483 318.423 82.817 318.029 82.003C317.634 81.189 317.437 80.19 317.437 79.006C317.437 77.8713 317.659 76.9093 318.103 76.12C318.571 75.3307 319.188 74.7017 319.953 74.233C320.717 73.7643 321.593 73.4313 322.58 73.234C323.566 73.012 324.59 72.901 325.651 72.901C326.366 72.901 326.995 72.938 327.538 73.012C328.105 73.0613 328.561 73.1353 328.907 73.234V72.716C328.907 71.7787 328.623 71.0263 328.056 70.459C327.488 69.8917 326.502 69.608 325.096 69.608C324.158 69.608 323.233 69.682 322.321 69.83C321.408 69.9533 320.619 70.1383 319.953 70.385L319.25 65.945C319.57 65.8463 319.965 65.7477 320.434 65.649C320.927 65.5257 321.457 65.427 322.025 65.353C322.592 65.2543 323.184 65.1803 323.801 65.131C324.442 65.057 325.083 65.02 325.725 65.02ZM343.882 74.64C343.882 77.7233 345.127 79.265 347.619 79.265C348.186 79.265 348.716 79.191 349.21 79.043C349.703 78.895 350.122 78.7223 350.468 78.525V69.719C350.196 69.6697 349.876 69.6327 349.506 69.608C349.136 69.5587 348.704 69.534 348.211 69.534C346.755 69.534 345.67 70.015 344.955 70.977C344.239 71.939 343.882 73.16 343.882 74.64ZM355.981 82.558C355.981 85.74 355.167 88.0957 353.539 89.625C351.935 91.179 349.444 91.956 346.065 91.956C344.881 91.956 343.697 91.845 342.513 91.623C341.329 91.4257 340.231 91.1543 339.22 90.809L340.182 86.184C341.045 86.5293 341.945 86.8007 342.883 86.998C343.845 87.1953 344.93 87.294 346.139 87.294C347.717 87.294 348.827 86.9487 349.469 86.258C350.135 85.5673 350.468 84.6793 350.468 83.594V82.891C349.876 83.1623 349.259 83.372 348.618 83.52C348.001 83.6433 347.323 83.705 346.583 83.705C343.894 83.705 341.834 82.9157 340.404 81.337C338.973 79.7337 338.258 77.5013 338.258 74.64C338.258 73.2093 338.48 71.9143 338.924 70.755C339.368 69.571 340.009 68.5597 340.848 67.721C341.711 66.8823 342.759 66.241 343.993 65.797C345.226 65.3283 346.62 65.094 348.174 65.094C348.84 65.094 349.518 65.131 350.209 65.205C350.924 65.2543 351.627 65.3283 352.318 65.427C353.008 65.5257 353.662 65.649 354.279 65.797C354.92 65.9203 355.487 66.056 355.981 66.204V82.558ZM366.665 85H361.152V65.538H366.665V85ZM367.183 59.914C367.183 60.9253 366.85 61.727 366.184 62.319C365.542 62.8863 364.778 63.17 363.89 63.17C363.002 63.17 362.225 62.8863 361.559 62.319C360.917 61.727 360.597 60.9253 360.597 59.914C360.597 58.9027 360.917 58.1133 361.559 57.546C362.225 56.954 363.002 56.658 363.89 56.658C364.778 56.658 365.542 56.954 366.184 57.546C366.85 58.1133 367.183 58.9027 367.183 59.914ZM380.283 56.288C381.319 56.288 382.269 56.399 383.132 56.621C383.995 56.8183 384.661 57.0157 385.13 57.213L384.057 61.616C383.564 61.394 383.021 61.2337 382.429 61.135C381.862 61.0117 381.331 60.95 380.838 60.95C380.172 60.95 379.605 61.0487 379.136 61.246C378.692 61.4187 378.334 61.6653 378.063 61.986C377.816 62.3067 377.631 62.689 377.508 63.133C377.409 63.577 377.36 64.058 377.36 64.576V65.538H384.168V70.126H377.36V85H371.847V64.502C371.847 61.986 372.55 59.988 373.956 58.508C375.387 57.028 377.496 56.288 380.283 56.288ZM405.747 65.538C404.637 69.2873 403.478 72.8023 402.269 76.083C401.06 79.3637 399.741 82.5457 398.31 85.629C397.792 86.739 397.274 87.6763 396.756 88.441C396.238 89.2303 395.671 89.8717 395.054 90.365C394.437 90.883 393.734 91.253 392.945 91.475C392.18 91.7217 391.28 91.845 390.244 91.845C389.381 91.845 388.579 91.7587 387.839 91.586C387.124 91.438 386.532 91.2653 386.063 91.068L387.025 86.665C387.592 86.8623 388.098 86.998 388.542 87.072C388.986 87.146 389.455 87.183 389.948 87.183C390.935 87.183 391.687 86.9117 392.205 86.369C392.748 85.851 393.204 85.1233 393.574 84.186C392.316 81.7193 391.058 78.9567 389.8 75.898C388.542 72.8147 387.358 69.3613 386.248 65.538H392.094C392.341 66.5 392.624 67.5483 392.945 68.683C393.29 69.793 393.648 70.9277 394.018 72.087C394.388 73.2217 394.758 74.3317 395.128 75.417C395.523 76.5023 395.893 77.489 396.238 78.377C396.559 77.489 396.892 76.5023 397.237 75.417C397.582 74.3317 397.915 73.2217 398.236 72.087C398.581 70.9277 398.902 69.793 399.198 68.683C399.519 67.5483 399.802 66.5 400.049 65.538H405.747Z" fill="white"/>
    <path d="M20.7454 124.705H19.0802V120.959C17.8008 120.939 16.7377 120.804 15.891 120.552C15.0443 120.281 14.414 120.02 14 119.768L14.5362 118.141C14.7809 118.277 15.0536 118.412 15.3547 118.548C15.6558 118.684 16.0039 118.809 16.399 118.925C16.7941 119.041 17.2457 119.138 17.7537 119.216C18.2806 119.274 18.892 119.303 19.5882 119.303C20.322 119.303 20.9429 119.225 21.4509 119.071C21.9778 118.916 22.4012 118.713 22.721 118.461C23.0597 118.19 23.2948 117.87 23.4266 117.502C23.5771 117.134 23.6524 116.747 23.6524 116.34C23.6524 115.701 23.5301 115.169 23.2855 114.743C23.0597 114.316 22.7304 113.949 22.2976 113.639C21.8837 113.31 21.3757 113.029 20.7736 112.797C20.1715 112.545 19.5129 112.283 18.798 112.012C18.2899 111.819 17.7725 111.606 17.2457 111.373C16.7188 111.121 16.239 110.822 15.8063 110.473C15.3923 110.105 15.0536 109.669 14.7903 109.166C14.5269 108.643 14.3951 108.024 14.3951 107.307C14.3951 105.874 14.7714 104.771 15.5241 103.996C16.2955 103.202 17.4808 102.689 19.0802 102.456V99H20.7454V102.369C21.6297 102.389 22.4012 102.485 23.0597 102.66C23.737 102.814 24.3015 102.989 24.7531 103.183L24.2733 104.78C23.9534 104.644 23.483 104.49 22.8621 104.315C22.2412 104.121 21.4039 104.025 20.3502 104.025C17.6784 104.025 16.3425 105.022 16.3425 107.017C16.3425 107.559 16.4366 108.014 16.6248 108.382C16.8129 108.73 17.0857 109.04 17.4432 109.311C17.8008 109.582 18.2335 109.825 18.7415 110.037C19.2495 110.25 19.814 110.473 20.4349 110.705C21.1123 110.976 21.7614 111.257 22.3823 111.548C23.0221 111.819 23.5771 112.158 24.0475 112.564C24.5367 112.971 24.9224 113.465 25.2046 114.046C25.4869 114.627 25.628 115.333 25.628 116.166C25.628 117.522 25.1953 118.615 24.3297 119.448C23.4642 120.281 22.2694 120.755 20.7454 120.871V124.705ZM40.6426 121.859C40.0216 120.677 39.4196 119.448 38.8363 118.17C38.2718 116.892 37.7356 115.605 37.2275 114.307C36.7384 112.991 36.2868 111.684 35.8728 110.386C35.4588 109.069 35.1014 107.781 34.8003 106.523H36.7477C36.9547 107.452 37.2182 108.459 37.538 109.544C37.8578 110.609 38.2154 111.713 38.6105 112.855C39.0244 113.997 39.476 115.169 39.9652 116.369C40.4544 117.57 40.9812 118.751 41.5457 119.913C41.9597 118.713 42.3266 117.58 42.6464 116.515C42.9662 115.449 43.2579 114.394 43.5213 113.349C43.8036 112.283 44.067 111.199 44.3116 110.095C44.575 108.992 44.8478 107.801 45.1301 106.523H46.9646C46.3625 109.331 45.6757 112.061 44.9043 114.714C44.1329 117.366 43.2955 119.797 42.3924 122.004C42.0349 122.876 41.668 123.621 41.2917 124.241C40.9154 124.88 40.4921 125.402 40.0216 125.809C39.5701 126.216 39.0338 126.516 38.4129 126.71C37.8108 126.903 37.0958 127 36.2679 127C35.7975 127 35.3648 126.942 34.9697 126.826C34.5934 126.71 34.3581 126.622 34.2641 126.564L34.631 124.996C34.7063 125.054 34.9132 125.132 35.2519 125.228C35.6094 125.344 35.9763 125.402 36.3526 125.402C36.8795 125.402 37.3498 125.344 37.7638 125.228C38.1965 125.112 38.5823 124.909 38.9209 124.618C39.2596 124.347 39.5607 123.989 39.8241 123.544C40.1063 123.098 40.3792 122.536 40.6426 121.859ZM54.6309 120.174C55.346 120.174 55.9669 120.155 56.4937 120.116C57.0394 120.058 57.5003 119.991 57.8766 119.913V114.627C57.6697 114.53 57.3404 114.433 56.8888 114.336C56.4372 114.22 55.8163 114.162 55.026 114.162C54.5745 114.162 54.1041 114.2 53.6149 114.278C53.1257 114.336 52.6741 114.481 52.2602 114.714C51.8463 114.926 51.5076 115.227 51.2441 115.614C50.9807 116.001 50.849 116.515 50.849 117.154C50.849 117.715 50.9337 118.19 51.103 118.577C51.2912 118.964 51.5452 119.274 51.865 119.506C52.2037 119.739 52.5988 119.913 53.0504 120.029C53.5208 120.126 54.0477 120.174 54.6309 120.174ZM54.4616 106.174C55.4212 106.174 56.2303 106.32 56.8888 106.61C57.5661 106.881 58.1118 107.269 58.5257 107.772C58.9397 108.256 59.2408 108.837 59.4289 109.515C59.6171 110.192 59.7111 110.928 59.7111 111.722V121.191C59.523 121.249 59.2502 121.316 58.8926 121.394C58.5352 121.452 58.1212 121.52 57.6508 121.598C57.1805 121.675 56.6536 121.733 56.0703 121.772C55.5058 121.83 54.9226 121.859 54.3205 121.859C53.5491 121.859 52.8341 121.772 52.1755 121.598C51.5358 121.423 50.9714 121.152 50.4821 120.784C50.0118 120.397 49.6354 119.913 49.3532 119.332C49.0898 118.731 48.958 118.005 48.958 117.154C48.958 116.34 49.1086 115.643 49.4096 115.062C49.7107 114.481 50.134 114.007 50.6797 113.639C51.2254 113.252 51.8745 112.971 52.6271 112.797C53.3797 112.622 54.1982 112.535 55.0825 112.535C55.346 112.535 55.6187 112.555 55.901 112.593C56.202 112.613 56.4843 112.651 56.7477 112.71C57.0299 112.748 57.2651 112.797 57.4533 112.855C57.6603 112.893 57.8014 112.932 57.8766 112.971V112.041C57.8766 111.519 57.839 111.015 57.7637 110.531C57.6885 110.028 57.5192 109.582 57.2557 109.195C57.0111 108.788 56.6536 108.469 56.1832 108.237C55.7316 107.985 55.1296 107.859 54.3769 107.859C53.3044 107.859 52.5048 107.937 51.9779 108.091C51.4512 108.246 51.0654 108.372 50.8208 108.469L50.5668 106.813C50.8867 106.659 51.3759 106.513 52.0344 106.378C52.7117 106.242 53.5208 106.174 54.4616 106.174ZM69.3575 106.232C69.9597 106.232 70.5241 106.281 71.0509 106.378C71.5966 106.474 71.9729 106.571 72.1799 106.668L71.813 108.295C71.6625 108.217 71.352 108.14 70.8816 108.062C70.43 107.966 69.8279 107.917 69.0753 107.917C68.285 107.917 67.6454 107.975 67.1561 108.091C66.6858 108.207 66.3753 108.304 66.2247 108.382V121.539H64.3902V107.22C64.8606 107.007 65.5098 106.794 66.3376 106.581C67.1656 106.349 68.1721 106.232 69.3575 106.232ZM74.9464 107.046C75.4921 106.891 76.2259 106.717 77.1478 106.523C78.0698 106.329 79.1988 106.232 80.5345 106.232C81.6451 106.232 82.5666 106.397 83.3004 106.726C84.0532 107.055 84.6459 107.53 85.0784 108.149C85.53 108.75 85.8504 109.476 86.038 110.328C86.2264 111.18 86.3203 112.119 86.3203 113.145V121.539H84.4857V113.755C84.4857 112.69 84.411 111.79 84.26 111.054C84.1288 110.318 83.8931 109.718 83.5544 109.253C83.2348 108.788 82.8023 108.459 82.2561 108.266C81.7298 108.053 81.0616 107.946 80.2522 107.946C79.3869 107.946 78.6343 107.995 77.9945 108.091C77.3736 108.188 76.9691 108.275 76.7809 108.353V121.539H74.9464V107.046ZM99.2717 121.539H97.4372V106.523H99.2717V121.539ZM99.695 101.992C99.695 102.437 99.5631 102.796 99.2999 103.066C99.036 103.318 98.7164 103.444 98.3403 103.444C97.9635 103.444 97.6439 103.318 97.3807 103.066C97.1168 102.796 96.9856 102.437 96.9856 101.992C96.9856 101.547 97.1168 101.198 97.3807 100.946C97.6439 100.675 97.9635 100.539 98.3403 100.539C98.7164 100.539 99.036 100.675 99.2999 100.946C99.5631 101.198 99.695 101.547 99.695 101.992ZM104.134 107.046C104.68 106.891 105.414 106.717 106.336 106.523C107.258 106.329 108.387 106.232 109.723 106.232C110.833 106.232 111.755 106.397 112.489 106.726C113.241 107.055 113.834 107.53 114.267 108.149C114.718 108.75 115.038 109.476 115.226 110.328C115.415 111.18 115.508 112.119 115.508 113.145V121.539H113.674V113.755C113.674 112.69 113.598 111.79 113.448 111.054C113.316 110.318 113.081 109.718 112.743 109.253C112.423 108.788 111.99 108.459 111.444 108.266C110.917 108.053 110.25 107.946 109.44 107.946C108.575 107.946 107.823 107.995 107.183 108.091C106.562 108.188 106.157 108.275 105.969 108.353V121.539H104.134V107.046ZM123.194 120.203C124.249 120.203 125.114 120.029 125.791 119.681C126.487 119.312 126.835 118.702 126.835 117.851C126.835 117.444 126.77 117.095 126.638 116.805C126.525 116.515 126.327 116.253 126.045 116.021C125.763 115.788 125.387 115.565 124.916 115.353C124.464 115.14 123.9 114.888 123.223 114.598C122.677 114.365 122.16 114.133 121.67 113.9C121.181 113.648 120.749 113.368 120.372 113.058C119.996 112.729 119.695 112.341 119.469 111.896C119.243 111.451 119.13 110.909 119.13 110.27C119.13 109.05 119.573 108.062 120.457 107.307C121.36 106.552 122.593 106.174 124.154 106.174C125.152 106.174 125.97 106.261 126.609 106.436C127.268 106.61 127.729 106.765 127.992 106.9L127.569 108.585C127.343 108.469 126.958 108.314 126.412 108.12C125.885 107.926 125.104 107.83 124.069 107.83C123.656 107.83 123.261 107.879 122.884 107.975C122.527 108.053 122.207 108.188 121.924 108.382C121.642 108.556 121.416 108.788 121.247 109.079C121.078 109.35 120.993 109.689 120.993 110.095C120.993 110.502 121.068 110.851 121.219 111.141C121.37 111.432 121.586 111.693 121.868 111.925C122.169 112.138 122.527 112.341 122.94 112.535C123.374 112.729 123.863 112.942 124.408 113.174C124.972 113.407 125.509 113.648 126.017 113.9C126.544 114.133 127.005 114.423 127.4 114.772C127.795 115.101 128.115 115.507 128.359 115.992C128.604 116.456 128.726 117.047 128.726 117.763C128.726 119.119 128.228 120.145 127.23 120.842C126.252 121.539 124.907 121.888 123.194 121.888C121.915 121.888 120.937 121.772 120.259 121.539C119.582 121.327 119.13 121.162 118.904 121.046L119.384 119.332C119.441 119.37 119.563 119.439 119.751 119.535C119.94 119.613 120.194 119.71 120.513 119.826C120.834 119.922 121.21 120.009 121.642 120.087C122.094 120.165 122.612 120.203 123.194 120.203ZM133.996 106.523H139.81V108.12H133.996V116.108C133.996 116.96 134.063 117.657 134.194 118.199C134.345 118.722 134.552 119.129 134.815 119.419C135.079 119.71 135.398 119.903 135.774 120C136.151 120.097 136.565 120.145 137.016 120.145C137.788 120.145 138.409 120.058 138.879 119.884C139.35 119.69 139.716 119.516 139.98 119.361L140.431 120.929C140.168 121.104 139.707 121.307 139.048 121.539C138.39 121.752 137.675 121.859 136.903 121.859C136 121.859 135.238 121.743 134.617 121.51C134.015 121.258 133.526 120.891 133.15 120.407C132.793 119.903 132.539 119.283 132.388 118.548C132.237 117.812 132.162 116.941 132.162 115.934V102.108L133.996 101.759V106.523ZM147.79 120.174C148.505 120.174 149.125 120.155 149.653 120.116C150.198 120.058 150.659 119.991 151.035 119.913V114.627C150.829 114.53 150.499 114.433 150.048 114.336C149.596 114.22 148.975 114.162 148.185 114.162C147.733 114.162 147.263 114.2 146.774 114.278C146.285 114.336 145.833 114.481 145.419 114.714C145.005 114.926 144.666 115.227 144.403 115.614C144.14 116.001 144.008 116.515 144.008 117.154C144.008 117.715 144.093 118.19 144.262 118.577C144.45 118.964 144.704 119.274 145.024 119.506C145.363 119.739 145.758 119.913 146.209 120.029C146.68 120.126 147.206 120.174 147.79 120.174ZM147.62 106.174C148.58 106.174 149.389 106.32 150.048 106.61C150.725 106.881 151.27 107.269 151.685 107.772C152.099 108.256 152.399 108.837 152.588 109.515C152.776 110.192 152.87 110.928 152.87 111.722V121.191C152.682 121.249 152.409 121.316 152.052 121.394C151.694 121.452 151.28 121.52 150.81 121.598C150.339 121.675 149.813 121.733 149.229 121.772C148.665 121.83 148.081 121.859 147.479 121.859C146.708 121.859 145.993 121.772 145.334 121.598C144.694 121.423 144.13 121.152 143.641 120.784C143.17 120.397 142.794 119.913 142.512 119.332C142.249 118.731 142.117 118.005 142.117 117.154C142.117 116.34 142.267 115.643 142.569 115.062C142.87 114.481 143.293 114.007 143.839 113.639C144.384 113.252 145.033 112.971 145.786 112.797C146.539 112.622 147.357 112.535 148.241 112.535C148.505 112.535 148.778 112.555 149.06 112.593C149.361 112.613 149.643 112.651 149.907 112.71C150.189 112.748 150.424 112.797 150.612 112.855C150.819 112.893 150.96 112.932 151.035 112.971V112.041C151.035 111.519 150.998 111.015 150.923 110.531C150.847 110.028 150.678 109.582 150.415 109.195C150.17 108.788 149.813 108.469 149.342 108.237C148.891 107.985 148.289 107.859 147.536 107.859C146.463 107.859 145.664 107.937 145.137 108.091C144.61 108.246 144.225 108.372 143.98 108.469L143.726 106.813C144.045 106.659 144.535 106.513 145.193 106.378C145.871 106.242 146.68 106.174 147.62 106.174ZM161.246 121.801C160.625 121.781 160.08 121.694 159.609 121.539C159.158 121.404 158.772 121.191 158.452 120.9C158.152 120.59 157.916 120.203 157.747 119.739C157.596 119.254 157.521 118.654 157.521 117.938V99.3485L159.355 99V117.88C159.355 118.344 159.393 118.722 159.468 119.012C159.563 119.283 159.694 119.506 159.863 119.681C160.033 119.835 160.249 119.951 160.512 120.029C160.795 120.107 161.124 120.174 161.5 120.232L161.246 121.801ZM168.44 121.801C167.819 121.781 167.274 121.694 166.803 121.539C166.352 121.404 165.966 121.191 165.646 120.9C165.345 120.59 165.11 120.203 164.94 119.739C164.79 119.254 164.715 118.654 164.715 117.938V99.3485L166.549 99V117.88C166.549 118.344 166.587 118.722 166.662 119.012C166.756 119.283 166.888 119.506 167.057 119.681C167.227 119.835 167.443 119.951 167.706 120.029C167.989 120.107 168.318 120.174 168.694 120.232L168.44 121.801ZM181.35 120.203C182.404 120.203 183.27 120.029 183.947 119.681C184.643 119.312 184.991 118.702 184.991 117.851C184.991 117.444 184.925 117.095 184.794 116.805C184.681 116.515 184.483 116.253 184.201 116.021C183.919 115.788 183.542 115.565 183.072 115.353C182.62 115.14 182.056 114.888 181.379 114.598C180.832 114.365 180.315 114.133 179.826 113.9C179.337 113.648 178.904 113.368 178.528 113.058C178.151 112.729 177.851 112.341 177.625 111.896C177.399 111.451 177.286 110.909 177.286 110.27C177.286 109.05 177.728 108.062 178.613 107.307C179.516 106.552 180.748 106.174 182.31 106.174C183.307 106.174 184.125 106.261 184.765 106.436C185.424 106.61 185.884 106.765 186.148 106.9L185.725 108.585C185.499 108.469 185.113 108.314 184.568 108.12C184.041 107.926 183.26 107.83 182.225 107.83C181.811 107.83 181.416 107.879 181.04 107.975C180.682 108.053 180.363 108.188 180.08 108.382C179.797 108.556 179.572 108.788 179.403 109.079C179.234 109.35 179.149 109.689 179.149 110.095C179.149 110.502 179.224 110.851 179.375 111.141C179.525 111.432 179.742 111.693 180.024 111.925C180.324 112.138 180.682 112.341 181.096 112.535C181.529 112.729 182.018 112.942 182.564 113.174C183.128 113.407 183.665 113.648 184.173 113.9C184.699 114.133 185.16 114.423 185.556 114.772C185.951 115.101 186.27 115.507 186.515 115.992C186.759 116.456 186.882 117.047 186.882 117.763C186.882 119.119 186.383 120.145 185.386 120.842C184.408 121.539 183.062 121.888 181.35 121.888C180.07 121.888 179.092 121.772 178.415 121.539C177.738 121.327 177.286 121.162 177.06 121.046L177.54 119.332C177.597 119.37 177.719 119.439 177.907 119.535C178.095 119.613 178.349 119.71 178.669 119.826C178.989 119.922 179.365 120.009 179.798 120.087C180.25 120.165 180.767 120.203 181.35 120.203ZM192.152 106.523H197.966V108.12H192.152V116.108C192.152 116.96 192.218 117.657 192.35 118.199C192.5 118.722 192.707 119.129 192.971 119.419C193.234 119.71 193.553 119.903 193.93 120C194.306 120.097 194.721 120.145 195.172 120.145C195.943 120.145 196.564 120.058 197.035 119.884C197.505 119.69 197.872 119.516 198.136 119.361L198.587 120.929C198.323 121.104 197.862 121.307 197.204 121.539C196.545 121.752 195.83 121.859 195.059 121.859C194.156 121.859 193.394 121.743 192.773 121.51C192.171 121.258 191.682 120.891 191.306 120.407C190.948 119.903 190.694 119.283 190.544 118.548C190.392 117.812 190.318 116.941 190.318 115.934V102.108L192.152 101.759V106.523ZM213.791 114.046C213.791 115.227 213.622 116.302 213.283 117.27C212.963 118.238 212.503 119.061 211.9 119.739C211.317 120.416 210.621 120.949 209.812 121.336C209.003 121.704 208.109 121.888 207.13 121.888C206.153 121.888 205.259 121.704 204.449 121.336C203.641 120.949 202.935 120.416 202.332 119.739C201.75 119.061 201.288 118.238 200.95 117.27C200.63 116.302 200.47 115.227 200.47 114.046C200.47 112.864 200.63 111.79 200.95 110.822C201.288 109.854 201.75 109.03 202.332 108.353C202.935 107.656 203.641 107.123 204.449 106.755C205.259 106.368 206.153 106.174 207.13 106.174C208.109 106.174 209.003 106.368 209.812 106.755C210.621 107.123 211.317 107.656 211.9 108.353C212.503 109.03 212.963 109.854 213.283 110.822C213.622 111.79 213.791 112.864 213.791 114.046ZM211.844 114.046C211.844 112.167 211.42 110.676 210.574 109.573C209.727 108.449 208.58 107.888 207.13 107.888C205.682 107.888 204.534 108.449 203.687 109.573C202.84 110.676 202.417 112.167 202.417 114.046C202.417 115.924 202.84 117.415 203.687 118.519C204.534 119.622 205.682 120.174 207.13 120.174C208.58 120.174 209.727 119.622 210.574 118.519C211.42 117.415 211.844 115.924 211.844 114.046ZM222.739 106.232C223.341 106.232 223.906 106.281 224.432 106.378C224.978 106.474 225.354 106.571 225.561 106.668L225.194 108.295C225.044 108.217 224.733 108.14 224.263 108.062C223.811 107.966 223.209 107.917 222.456 107.917C221.666 107.917 221.027 107.975 220.537 108.091C220.067 108.207 219.757 108.304 219.606 108.382V121.539H217.771V107.22C218.242 107.007 218.891 106.794 219.719 106.581C220.547 106.349 221.553 106.232 222.739 106.232ZM232.928 120.174C233.644 120.174 234.264 120.155 234.791 120.116C235.337 120.058 235.798 119.991 236.174 119.913V114.627C235.967 114.53 235.637 114.433 235.186 114.336C234.734 114.22 234.113 114.162 233.323 114.162C232.872 114.162 232.402 114.2 231.912 114.278C231.423 114.336 230.971 114.481 230.557 114.714C230.144 114.926 229.805 115.227 229.541 115.614C229.278 116.001 229.146 116.515 229.146 117.154C229.146 117.715 229.231 118.19 229.4 118.577C229.589 118.964 229.843 119.274 230.162 119.506C230.501 119.739 230.896 119.913 231.348 120.029C231.818 120.126 232.345 120.174 232.928 120.174ZM232.759 106.174C233.718 106.174 234.528 106.32 235.186 106.61C235.863 106.881 236.409 107.269 236.823 107.772C237.237 108.256 237.538 108.837 237.726 109.515C237.914 110.192 238.008 110.928 238.008 111.722V121.191C237.821 121.249 237.547 121.316 237.19 121.394C236.833 121.452 236.419 121.52 235.948 121.598C235.478 121.675 234.951 121.733 234.367 121.772C233.803 121.83 233.22 121.859 232.618 121.859C231.846 121.859 231.132 121.772 230.473 121.598C229.833 121.423 229.269 121.152 228.779 120.784C228.309 120.397 227.932 119.913 227.65 119.332C227.387 118.731 227.255 118.005 227.255 117.154C227.255 116.34 227.406 115.643 227.707 115.062C228.008 114.481 228.431 114.007 228.977 113.639C229.523 113.252 230.172 112.971 230.924 112.797C231.677 112.622 232.496 112.535 233.38 112.535C233.644 112.535 233.916 112.555 234.198 112.593C234.499 112.613 234.782 112.651 235.045 112.71C235.327 112.748 235.563 112.797 235.75 112.855C235.958 112.893 236.099 112.932 236.174 112.971V112.041C236.174 111.519 236.136 111.015 236.061 110.531C235.986 110.028 235.817 109.582 235.553 109.195C235.309 108.788 234.951 108.469 234.48 108.237C234.029 107.985 233.427 107.859 232.674 107.859C231.602 107.859 230.802 107.937 230.275 108.091C229.749 108.246 229.363 108.372 229.118 108.469L228.864 106.813C229.184 106.659 229.673 106.513 230.331 106.378C231.009 106.242 231.818 106.174 232.759 106.174ZM252.198 119.797C252.086 119.893 251.916 120.009 251.69 120.145C251.465 120.261 251.182 120.387 250.844 120.523C250.524 120.659 250.148 120.775 249.715 120.871C249.301 120.949 248.831 120.988 248.304 120.988C247.457 120.988 246.638 120.852 245.848 120.581C245.058 120.31 244.362 119.884 243.76 119.303C243.177 118.722 242.706 117.976 242.348 117.066C241.992 116.137 241.812 115.014 241.812 113.697C241.812 112.632 241.972 111.644 242.292 110.734C242.612 109.825 243.064 109.04 243.647 108.382C244.249 107.704 244.973 107.181 245.82 106.813C246.686 106.426 247.654 106.232 248.727 106.232C250.082 106.232 251.164 106.329 251.973 106.523C252.801 106.697 253.478 106.871 254.005 107.046V120.755C254.005 123.001 253.44 124.599 252.311 125.548C251.182 126.516 249.48 127 247.203 127C246.262 127 245.407 126.922 244.635 126.768C243.882 126.632 243.233 126.468 242.687 126.274L243.054 124.56C243.506 124.773 244.117 124.957 244.889 125.112C245.679 125.267 246.469 125.344 247.259 125.344C248.991 125.344 250.242 124.996 251.013 124.299C251.803 123.621 252.198 122.449 252.198 120.784V119.797ZM252.17 108.353C251.851 108.256 251.436 108.169 250.928 108.091C250.42 107.995 249.696 107.946 248.755 107.946C247.965 107.946 247.259 108.091 246.638 108.382C246.037 108.653 245.519 109.05 245.086 109.573C244.654 110.076 244.324 110.686 244.098 111.402C243.873 112.1 243.76 112.874 243.76 113.726C243.76 114.714 243.892 115.565 244.155 116.282C244.419 116.979 244.757 117.551 245.171 117.996C245.604 118.441 246.093 118.771 246.638 118.983C247.185 119.177 247.739 119.274 248.304 119.274C249.132 119.274 249.884 119.148 250.561 118.896C251.258 118.644 251.794 118.354 252.17 118.025V108.353ZM260.7 121.539H258.866V106.523H260.7V121.539ZM261.124 101.992C261.124 102.437 260.993 102.796 260.729 103.066C260.466 103.318 260.146 103.444 259.769 103.444C259.393 103.444 259.073 103.318 258.81 103.066C258.546 102.796 258.414 102.437 258.414 101.992C258.414 101.547 258.546 101.198 258.81 100.946C259.073 100.675 259.393 100.539 259.769 100.539C260.146 100.539 260.466 100.675 260.729 100.946C260.993 101.198 261.124 101.547 261.124 101.992ZM270.926 99C271.717 99 272.356 99.0677 272.846 99.2033C273.354 99.3195 273.682 99.426 273.833 99.5228L273.467 101.149C273.259 101.053 272.949 100.955 272.535 100.859C272.14 100.743 271.632 100.685 271.011 100.685C269.713 100.685 268.782 101.024 268.217 101.701C267.671 102.379 267.399 103.464 267.399 104.954V106.523H273.269V108.12H267.399V121.539H265.564V104.896C265.564 102.941 265.997 101.469 266.862 100.481C267.746 99.4938 269.101 99 270.926 99ZM280.678 121.859C280.057 120.677 279.455 119.448 278.872 118.17C278.307 116.892 277.771 115.605 277.263 114.307C276.774 112.991 276.322 111.684 275.908 110.386C275.495 109.069 275.137 107.781 274.836 106.523H276.783C276.991 107.452 277.254 108.459 277.573 109.544C277.894 110.609 278.251 111.713 278.646 112.855C279.06 113.997 279.512 115.169 280.001 116.369C280.49 117.57 281.017 118.751 281.581 119.913C281.995 118.713 282.362 117.58 282.682 116.515C283.002 115.449 283.294 114.394 283.557 113.349C283.839 112.283 284.103 111.199 284.347 110.095C284.611 108.992 284.883 107.801 285.165 106.523H287C286.398 109.331 285.712 112.061 284.94 114.714C284.169 117.366 283.331 119.797 282.428 122.004C282.071 122.876 281.704 123.621 281.327 124.241C280.951 124.88 280.528 125.402 280.057 125.809C279.606 126.216 279.069 126.516 278.448 126.71C277.847 126.903 277.132 127 276.303 127C275.834 127 275.4 126.942 275.005 126.826C274.629 126.71 274.394 126.622 274.3 126.564L274.666 124.996C274.742 125.054 274.949 125.132 275.287 125.228C275.645 125.344 276.012 125.402 276.388 125.402C276.915 125.402 277.386 125.344 277.799 125.228C278.232 125.112 278.618 124.909 278.956 124.618C279.295 124.347 279.596 123.989 279.86 123.544C280.142 123.098 280.415 122.536 280.678 121.859Z" fill="#FFE55A"/>
    <path d="M410.384 306.74H414.596L415.506 301.982H417.69L416.78 306.74H419.068V308.664H416.39L415.506 313.318H419.068V315.242H415.142L414.232 320H412.048L412.958 315.242H408.746L407.836 320H405.652L406.562 315.242H404.274V313.318H406.926L407.81 308.664H404.274V306.74H408.2L409.11 301.982H411.294L410.384 306.74ZM409.11 313.318H413.322L414.232 308.664H410.02L409.11 313.318Z" fill="#FFE55A"/>
    <path d="M520.384 306.74H524.596L525.506 301.982H527.69L526.78 306.74H529.068V308.664H526.39L525.506 313.318H529.068V315.242H525.142L524.232 320H522.048L522.958 315.242H518.746L517.836 320H515.652L516.562 315.242H514.274V313.318H516.926L517.81 308.664H514.274V306.74H518.2L519.11 301.982H521.294L520.384 306.74ZM519.11 313.318H523.322L524.232 308.664H520.02L519.11 313.318Z" fill="#FFE55A"/>
    <path d="M498.384 306.74H502.596L503.506 301.982H505.69L504.78 306.74H507.068V308.664H504.39L503.506 313.318H507.068V315.242H503.142L502.232 320H500.048L500.958 315.242H496.746L495.836 320H493.652L494.562 315.242H492.274V313.318H494.926L495.81 308.664H492.274V306.74H496.2L497.11 301.982H499.294L498.384 306.74ZM497.11 313.318H501.322L502.232 308.664H498.02L497.11 313.318Z" fill="#FFE55A"/>
    <path d="M476.384 306.74H480.596L481.506 301.982H483.69L482.78 306.74H485.068V308.664H482.39L481.506 313.318H485.068V315.242H481.142L480.232 320H478.048L478.958 315.242H474.746L473.836 320H471.652L472.562 315.242H470.274V313.318H472.926L473.81 308.664H470.274V306.74H474.2L475.11 301.982H477.294L476.384 306.74ZM475.11 313.318H479.322L480.232 308.664H476.02L475.11 313.318Z" fill="#FFE55A"/>
    <path d="M454.384 306.74H458.596L459.506 301.982H461.69L460.78 306.74H463.068V308.664H460.39L459.506 313.318H463.068V315.242H459.142L458.232 320H456.048L456.958 315.242H452.746L451.836 320H449.652L450.562 315.242H448.274V313.318H450.926L451.81 308.664H448.274V306.74H452.2L453.11 301.982H455.294L454.384 306.74ZM453.11 313.318H457.322L458.232 308.664H454.02L453.11 313.318Z" fill="#FFE55A"/>
    <path d="M432.384 306.74H436.596L437.506 301.982H439.69L438.78 306.74H441.068V308.664H438.39L437.506 313.318H441.068V315.242H437.142L436.232 320H434.048L434.958 315.242H430.746L429.836 320H427.652L428.562 315.242H426.274V313.318H428.926L429.81 308.664H426.274V306.74H430.2L431.11 301.982H433.294L432.384 306.74ZM431.11 313.318H435.322L436.232 308.664H432.02L431.11 313.318Z" fill="#FFE55A"/>
</svg>
